<svg width="447" height="450" viewBox="0 0 447 450" fill="none" xmlns="http://www.w3.org/2000/svg">
<circle cx="229.5" cy="249.5" r="198" fill="#F69ABF" fill-opacity="0.1" stroke="#FB93AE" stroke-width="5"/>
<circle cx="40" cy="40" r="37.5" stroke="#FB93AE" stroke-width="5"/>
<path d="M339.274 77.1417L314.632 63.5914C313.922 61.7484 317.559 60.4559 319.976 61.5592C321.041 62.0477 322.205 62.9461 323.501 64.0783C326.304 59.8092 339.293 40.7407 346.158 45.5811C353.882 50.9901 341.293 54.4294 336.381 57.8619C332.737 60.4093 328.2 64.4027 326.043 66.3153C326.635 66.8347 327.241 67.3293 327.883 67.8761C330.808 65.159 340.986 56.2297 345.775 59.7022C351.394 63.7929 346.519 66.9226 340.767 67.2132C336.544 67.4415 331.173 68.1032 328.589 68.4256C330.001 69.5247 331.528 70.5905 333.203 71.4471C337.464 73.6929 338.843 76.0331 339.274 77.1417Z" fill="#FB93AE"/>
<path d="M129.206 69.3158C126.588 67.9084 119.248 64.6599 114.223 68.5497C108.753 72.7908 123.56 69.5623 128.706 69.6518C127.838 70.1532 127.067 70.5036 126.444 70.6279C123.344 71.1936 119.987 75.4858 118.965 76.9236L143.347 62.8468C142.827 62.3467 141.825 61.654 140.305 61.5894C139.746 61.5828 138.927 62.0087 137.925 62.6809C138.385 60.1084 136.192 53.9828 132.978 57.7214C130.638 60.4852 132.595 63.8752 134.049 65.6723C133.485 66.1391 132.921 66.606 132.337 67.0376C127.492 61.4538 112.543 45.5071 103.575 50.0258C94.4673 54.6247 122.092 64.854 131.154 67.9561C130.43 68.4679 129.811 68.9195 129.206 69.3158Z" fill="#FB93AE"/>
<path d="M398.678 332.134L396.934 339.499L394.617 349.274H387.343L386.907 339.912L386.586 332.684L398.678 332.134Z" fill="#FFB27D"/>
<path d="M421.715 171.722C421.715 171.722 427.452 165.573 431.192 170.391C434.932 175.21 439.062 178.468 444.798 182.185C450.535 185.903 439.727 214.974 432.546 214.378C425.364 213.781 396.062 190.859 421.715 171.722Z" fill="#BC3F3F"/>
<path d="M393.08 168.808C394.525 167.729 407.719 163.209 420.614 167.661C433.487 172.112 410.633 184.549 410.633 184.549L403.222 184.87L393.08 168.808Z" fill="#4A75CB"/>
<path d="M384.475 360.012C384.475 360.012 384.475 356.456 384.98 355.263C385.485 354.07 387.343 349.274 387.343 349.274H394.617C394.617 349.274 395.971 353.657 396.063 355.102C396.154 356.548 396.063 360.012 396.063 360.012H384.475Z" fill="#233862"/>
<path d="M430.596 360.012C430.596 360.012 430.596 356.456 430.091 355.263C429.586 354.07 427.727 349.274 427.727 349.274H420.454C420.454 349.274 419.1 353.657 419.008 355.102C418.916 356.548 419.008 360.012 419.008 360.012H430.596Z" fill="#233862"/>
<path d="M401.5 160.41C401.5 160.41 401.248 168.326 400.238 171.883L392.208 189.184L422.404 182.002L415.199 172.043C415.199 172.043 413.019 161.42 414.166 157.496C415.314 153.549 401.5 160.41 401.5 160.41Z" fill="#FFB27D"/>
<path d="M401.455 161.488C401.455 161.488 403.841 167.248 408.338 167.11C412.836 166.972 413.868 161.901 413.868 161.901L401.455 161.488Z" fill="#ED985F"/>
<path d="M398.77 156.831C398.77 156.831 397.325 149.58 396.315 147.377C395.305 145.174 394.456 135.377 405.7 134.872C405.7 134.872 410.013 135.377 412.377 133.954C412.377 133.954 412.377 135.4 411.78 135.904C411.78 135.904 415.658 134.987 418.71 138.36C421.762 141.733 416.691 153.572 416.943 156.349L398.77 156.831Z" fill="#2C3A64"/>
<path d="M407.811 164.907C404.552 164.838 398.563 160.502 398.563 155.132V146.757C398.563 144.784 399.94 143.201 401.615 143.201H414.052C415.727 143.201 417.103 144.807 417.103 146.757V154.673C417.08 160.295 411.551 164.953 407.811 164.907Z" fill="#FFB27D"/>
<path d="M398.563 151.209C398.563 151.209 398.586 146.161 402.579 145.404C406.571 144.624 415.497 147.859 416.759 144.188C418.021 140.516 399.504 140.585 398.563 142.926C397.622 145.266 398.563 151.209 398.563 151.209Z" fill="#2C3A64"/>
<path d="M412.468 238.54C414.464 232.321 414.419 264.307 406.411 300.263C405.195 305.747 402.441 318.986 400.468 331.813H384.039C383.809 321.464 382.708 307.032 381.997 296.201C379.817 262.288 385.393 236.842 385.393 236.842L412.468 238.54Z" fill="#2B478B"/>
<path d="M433.578 296.201C433.395 306.573 431.284 320.34 431.1 330.436H414.419C413.294 323.116 411.528 315.567 410.243 309.464C409.325 305.15 408.682 301.548 408.682 299.299C408.705 294.894 405.906 282.205 404.254 271.007C404.254 270.984 404.254 270.984 404.254 270.961C404.185 270.525 404.116 270.112 404.07 269.676C401.845 253.936 402.625 238.539 402.625 238.539L430.779 236.773C430.779 236.773 434.06 268.552 433.578 296.201Z" fill="#2B478B"/>
<path d="M383.144 249.897C383.144 249.897 389.477 257.561 406.686 256.46C423.895 255.358 432.11 252.353 432.11 252.353L383.144 249.897Z" fill="#233862"/>
<path d="M432.11 252.352C426.488 253.11 388.261 255.106 383.167 249.897C378.073 244.689 391.496 173.535 391.496 173.535C391.496 173.535 393.011 173.099 395.58 172.617C396.888 172.365 398.472 172.112 400.238 171.906C400.261 172.456 400.697 180.854 407.673 184.319C407.673 184.319 416.025 180.969 415.222 172.043C415.222 171.929 415.199 171.837 415.176 171.745C416.3 171.86 417.425 172.02 418.549 172.227C420.843 172.617 423.161 173.168 425.478 173.948C425.455 173.902 437.731 251.595 432.11 252.352Z" fill="#739AF0"/>
<path d="M383.488 215.617C383.259 215.916 384.796 218.095 386.93 220.918C391.359 226.7 398.426 235.121 398.426 235.121C398.334 237.966 397.921 239.825 397.921 239.825C388.192 235.236 381.63 230.945 377.27 227.48C371.144 222.639 369.4 219.449 369.4 219.449C379.221 177.895 391.818 173.581 391.818 173.581L395.925 198.615C395.925 198.615 384.177 214.722 383.488 215.617Z" fill="#739AF0"/>
<path d="M418.549 172.204L416.025 179.914L412.652 184.87L407.811 187.509L403.244 184.87L395.581 172.617C396.888 172.365 398.472 172.112 400.239 171.906C400.261 172.456 400.697 180.854 407.673 184.319C407.673 184.319 416.025 180.969 415.222 172.043C415.222 171.929 415.199 171.837 415.176 171.745C416.277 171.837 417.402 171.997 418.549 172.204Z" fill="#EE9849"/>
<path d="M398.426 235.121C398.426 235.212 398.426 235.281 398.426 235.35C398.403 235.878 398.38 236.36 398.334 236.819C398.082 237.163 397.829 237.484 397.531 237.759C397.095 238.218 396.59 238.585 396.108 238.907C395.856 238.792 395.626 238.677 395.374 238.54C387.045 234.409 381.263 230.578 377.293 227.434C379.817 226.654 383.328 224.887 386.93 220.872C391.359 226.7 398.426 235.121 398.426 235.121Z" fill="#FFB27D"/>
<path d="M446.703 217.912C446.703 217.912 445.005 221.124 438.971 226.103C434.68 229.637 428.186 234.065 418.572 238.838C418.572 238.838 418.136 237.002 417.999 234.157C417.999 234.157 424.905 225.599 429.219 219.747C431.307 216.902 432.798 214.676 432.569 214.378C432.018 213.69 424.653 203.984 421.349 199.647C420.385 198.385 419.788 197.582 419.788 197.582L423.964 172.962C423.941 172.985 436.08 176.564 446.703 217.912Z" fill="#739AF0"/>
<path d="M438.971 226.102C435.047 229.315 429.311 233.284 421.027 237.575C420.821 237.69 420.614 237.782 420.408 237.896C419.352 236.611 418.71 235.097 418.32 233.743C418.457 233.583 418.641 233.353 418.848 233.078C420.844 230.6 425.823 224.336 429.219 219.724C432.89 223.67 436.447 225.368 438.971 226.102Z" fill="#FFB27D"/>
<path d="M415.153 171.722C409.578 171.126 404.346 171.401 400.216 171.883C400.216 171.86 400.216 171.86 400.216 171.86C400.216 171.86 414.052 163.324 415.153 171.722Z" fill="#FFB27D"/>
<path d="M401.294 195.907H401.019L400.812 182.575H401.524L401.294 195.907Z" fill="#BBD4FF"/>
<path d="M400.996 195.563C400.744 195.953 400.147 197.238 400.537 197.375C400.927 197.513 401.593 197.513 401.776 197.329C401.96 197.146 401.478 194.828 400.996 195.563Z" fill="#EE9849"/>
<path d="M414.396 195.907H414.098L413.891 182.575H414.602L414.396 195.907Z" fill="#BBD4FF"/>
<path d="M414.075 195.563C413.822 195.953 413.226 197.238 413.616 197.375C414.006 197.513 414.671 197.513 414.855 197.329C415.038 197.146 414.556 194.828 414.075 195.563Z" fill="#EE9849"/>
<path d="M403.221 184.87L391.473 173.535C391.473 173.535 388.835 171.653 393.011 168.854C397.187 166.032 403.221 184.87 403.221 184.87Z" fill="#4A75CB"/>
<path d="M412.629 184.87L424.377 173.535C424.377 173.535 427.016 171.653 422.84 168.854C418.664 166.032 412.629 184.87 412.629 184.87Z" fill="#4A75CB"/>
<path d="M427.383 239.985C425.088 240.168 423.184 239.595 421.715 238.287C421.463 238.057 421.234 237.828 421.027 237.576C419.857 236.222 419.214 234.501 418.847 233.078C418.434 231.426 418.388 230.141 418.388 230.118V229.797H399.412L399.435 230.141C399.504 232.183 399.183 233.927 398.449 235.373C398.082 236.084 397.623 236.727 397.072 237.3C396.567 237.828 395.994 238.241 395.397 238.585C392.85 240.054 390.028 240.008 390.005 240.008L389.661 239.985V247.993H427.796V239.962L427.383 239.985Z" fill="#678FE5"/>
<path d="M432.546 214.378C432.546 214.378 421.968 200.496 430.343 196.458C433.67 194.851 438.351 213.896 435.85 215.686C433.349 217.476 429.219 219.747 429.219 219.747L432.546 214.378Z" fill="#678FE5"/>
<path d="M384.705 212.083C384.705 212.083 388.376 194.645 385.164 196.457C381.928 198.247 377.156 213.896 379.657 215.686C382.158 217.475 386.288 219.747 386.288 219.747L384.705 212.083Z" fill="#678FE5"/>
<path d="M431.077 214.332C426.236 208.343 424.446 198.592 424.698 188.542C424.882 180.992 425.915 174.178 425.983 173.948L429.953 177.046C429.93 177.092 427.681 181.222 427.498 188.564C427.337 195.288 427.016 200.381 430.825 212.084L431.077 214.332Z" fill="#BC3F3F"/>
<path d="M394.388 335.53H385.875C385.118 335.621 383.947 334.52 383.947 332.937C383.947 332.937 383.924 329.151 383.672 328.485C382.571 325.548 384.2 325.388 385.783 325.388H401.317C402.9 325.388 400.468 330.252 400.468 331.835L401.019 333.9C401.042 335.461 395.971 335.53 394.388 335.53Z" fill="#233862"/>
<path d="M396.934 339.499L394.617 349.274H387.343L386.907 339.912C387.986 340.302 391.634 341.335 396.934 339.499Z" fill="#233862"/>
<path d="M416.392 332.134L418.159 339.385L420.476 349.022H427.75L428.163 339.798L428.507 332.684L416.392 332.134Z" fill="#FFB27D"/>
<path d="M420.706 335.53H429.218C429.976 335.621 431.146 334.52 431.146 332.937C431.146 332.937 431.169 329.151 431.421 328.485C432.523 325.548 430.893 325.388 429.31 325.388H413.776C412.193 325.388 414.625 330.252 414.625 331.835L414.074 333.9C414.051 335.461 419.122 335.53 420.706 335.53Z" fill="#233862"/>
<path d="M418.159 339.499L420.476 349.274H427.75L428.186 339.912C427.084 340.302 423.436 341.335 418.159 339.499Z" fill="#233862"/>
<path d="M56.9517 141.917C56.378 141.297 55.0931 140.586 53.4181 140.012C56.378 138.682 58.8791 137.121 57.1582 136.158C56.401 135.745 55.5061 135.79 54.5653 136.135C56.0109 134.666 56.7222 133.404 55.2996 133.06C53.1427 132.555 50.8941 135.332 49.3338 137.901C50.3434 135.699 50.8711 133.519 48.9896 133.496C46.8098 133.45 46.3738 136.364 46.4197 138.865C46.2362 138.865 46.0526 138.865 45.869 138.865C45.2495 136.089 44.0563 132.647 42.0142 133.565C40.9817 134.024 41.0275 135.033 41.5553 136.181C40.5916 135.446 39.6508 135.194 38.8936 135.974C37.7463 137.167 39.169 138.59 41.0275 139.76C39.6967 140.242 38.4577 140.93 37.3333 141.917C30.9774 147.47 37.907 160.044 37.907 160.044L56.0568 159.585C61.7473 150.521 58.9938 144.143 56.9517 141.917Z" fill="#2C3A64"/>
<path d="M38.4121 228.49L27.5589 229.867C20.4228 230.762 13.9752 226.655 13.2409 220.735L9.11072 187.992C8.35352 182.072 11.4741 177.391 18.656 177.115C22.9009 176.932 29.9911 176.014 37.6319 173.467C44.4008 171.218 45.158 177.437 45.8923 183.357L50.0225 216.1C50.7797 222.02 45.5481 227.595 38.4121 228.49Z" fill="#2B478B"/>
<path d="M24.0713 361C24.0713 361 24.0713 357.513 24.5761 356.342C25.0809 355.172 26.8936 350.468 26.8936 350.468H34.0296C34.0296 350.468 35.3604 354.782 35.4293 356.182C35.5211 357.581 35.4293 361 35.4293 361H24.0713Z" fill="#233862"/>
<path d="M69.3197 361C69.3197 361 69.3197 357.513 68.8149 356.342C68.3101 355.172 66.4974 350.468 66.4974 350.468H59.3614C59.3614 350.468 58.0305 354.782 57.9617 356.182C57.8699 357.581 57.9617 361 57.9617 361H69.3197Z" fill="#233862"/>
<path d="M40.7754 165.23C40.7754 165.23 40.523 173.008 39.5363 176.473L31.666 181.957L61.2886 186.385L54.2214 176.633C54.2214 176.633 52.0875 166.216 53.2118 162.361C54.3132 158.507 40.7754 165.23 40.7754 165.23Z" fill="#B56F40"/>
<path d="M40.7295 166.285C40.7295 166.285 43.0699 171.929 47.4755 171.792C51.881 171.677 52.8906 166.675 52.8906 166.675L40.7295 166.285Z" fill="#99592E"/>
<path d="M46.9707 169.635C43.7813 169.589 37.8843 165.322 37.8843 160.044V151.807C37.8843 149.879 39.2151 148.296 40.8672 148.296H53.0742C54.7262 148.296 56.0571 149.879 56.0571 151.807V159.562C56.0571 165.115 50.6419 169.704 46.9707 169.635Z" fill="#B56F40"/>
<path d="M24.966 240.192C24.966 240.192 26.2051 278.259 24.3465 299.988C22.4879 321.717 24.3694 351.936 24.3694 351.936C24.3694 351.936 30.3352 355.218 36.7829 351.936C36.7829 351.936 43.8731 309.969 43.8272 299.988C43.7813 289.341 51.5369 241.867 51.5369 241.867L24.966 240.192Z" fill="#2B478B"/>
<path d="M69.0673 351.937C69.0673 351.937 63.1015 355.218 56.6538 351.937C56.6538 351.937 49.5637 309.969 49.6096 299.988C49.6325 295.491 48.2558 284.431 46.6726 273.142C44.4927 257.7 41.8999 241.867 41.8999 241.867L69.5033 240.146C69.5033 240.146 67.2317 278.282 69.0903 299.988C70.9259 321.718 69.0673 351.937 69.0673 351.937Z" fill="#2B478B"/>
<path d="M64.2714 178.469C60.6919 177.574 57.3189 177 54.1984 176.633C51.4449 180.282 49.4716 181.131 46.9705 182.117C42.9321 181.567 39.5133 176.587 39.5133 176.473C33.6392 177.069 30.3121 178.308 30.3121 178.308C28.0864 179.249 25.1494 196.711 24.6905 206.394C24.6446 207.61 24.6217 208.711 24.6446 209.629C24.8741 217.935 25.2183 226.035 24.1398 234.984C22.7401 246.755 25.1265 246.548 25.1265 246.548C25.1265 246.548 28.3388 247.168 32.8132 247.764C36.8745 248.315 41.9455 248.82 46.6264 248.82C57.3648 248.82 69.1358 246.548 69.1358 246.548C72.5318 246.594 68.1951 225.461 67.5526 212.749C67.4149 209.789 67.2773 207.105 67.1396 204.65C71.2009 208.16 83.1784 214.539 83.4538 215.365C83.4538 215.365 80.838 220.138 80.0579 222.685C77.0061 232.437 71.7746 238.907 71.7746 238.907C72.4859 241.615 72.2794 242.808 72.2794 242.808C80.5627 236.291 85.909 230.762 89.3278 226.494C94.1234 220.505 95.1101 217.086 95.1101 217.086C76.6619 179.479 64.2714 178.469 64.2714 178.469Z" fill="#74ACBE"/>
<path d="M32.8362 247.765C28.3618 247.168 25.1494 246.548 25.1494 246.548C25.1494 246.548 22.7631 246.755 24.1628 234.984C25.2412 226.035 24.897 217.958 24.6676 209.629C24.6446 208.711 24.6676 207.61 24.7135 206.394C25.4018 207.495 33.0427 219.84 35.1077 229.018C36.5992 235.718 34.3276 243.588 32.8362 247.765Z" fill="#578E9B"/>
<path d="M49.5864 299.988C49.6094 295.491 48.2326 284.431 46.6494 273.142C48.3015 266.396 52.3399 259.926 52.3399 259.926C57.4108 274.221 49.5864 299.988 49.5864 299.988Z" fill="#2B478B"/>
<path d="M71.7745 238.884C71.7745 238.884 67.3001 234.731 65.4874 237.071C63.6747 239.389 63.3306 243.037 64.7532 242.785C66.1529 242.532 69.0669 241.202 69.4799 241.867C69.893 242.532 71.7515 243.794 72.3022 242.785C72.8529 241.775 71.7745 238.884 71.7745 238.884Z" fill="#B56F40"/>
<path d="M71.7749 238.885C72.4862 241.592 72.2797 242.785 72.2797 242.785C80.563 236.269 85.9093 230.739 89.3282 226.471C86.7583 226.287 84.372 225.714 80.0582 222.662C76.5017 233.538 71.7749 238.885 71.7749 238.885Z" fill="#B56F40"/>
<path d="M82.4443 214.516C81.7788 213.965 71.1551 208.114 67.1167 204.604C67.1167 204.604 71.1321 201.598 73.6103 205.98C76.1113 210.363 82.4443 214.516 82.4443 214.516Z" fill="#578E9B"/>
<path d="M95.1329 217.063C95.1329 217.063 94.1462 220.482 89.3506 226.471C83.7978 226.402 95.1329 217.063 95.1329 217.063Z" fill="#578E9B"/>
<path d="M37.8843 155.156C37.8843 155.156 40.11 148.387 47.3837 149.443C54.6574 150.498 55.2769 152.059 56.0571 153.848C56.8372 155.661 58.3287 147.263 58.3287 147.263L49.7471 144.716C49.7471 144.716 39.3757 145.886 38.6185 147.63C37.8843 149.374 37.8843 149.374 37.8843 149.374V155.156Z" fill="#2C3A64"/>
<path d="M24.7822 227.32L24.897 221.538C33.1344 215.297 36.4615 207.885 36.7827 195.082C37.0121 185.376 33.7539 177.459 33.731 177.368C33.731 177.368 35.1765 177.024 35.6813 176.932C36.2091 176.84 37.8611 176.656 37.8611 176.656C37.9529 177.001 40.1327 184.894 39.8803 195.059C39.582 208.711 33.6851 220.551 24.7822 227.32Z" fill="#2B478B"/>
<path d="M47.5902 225.645C44.8138 226.058 30.5647 229.362 20.4228 230.647C14.7094 231.358 10.2809 231.45 9.93673 230.005C8.99596 226.012 12.2083 200.543 17.3022 190.286C22.3961 180.03 31.8726 177.827 31.8726 177.827L34.5572 194.049L20.8817 221.285L24.2088 221.354L47.0625 221.767L47.5902 225.645Z" fill="#74ACBE"/>
<path d="M54.75 227.09H49.6102C48.9906 227.09 48.4858 226.586 48.4858 225.966V216.65C48.4858 216.031 48.9906 215.526 49.6102 215.526H54.75C55.3695 215.526 55.8743 216.031 55.8743 216.65V225.966C55.8972 226.586 55.3695 227.09 54.75 227.09Z" fill="#233862"/>
<path d="M54.7495 228.032H49.6097C48.9902 228.032 48.4854 227.527 48.4854 226.908V217.592C48.4854 216.972 48.9902 216.467 49.6097 216.467H54.7495C55.369 216.467 55.8738 216.972 55.8738 217.592V226.908C55.8967 227.504 55.369 228.032 54.7495 228.032Z" fill="#2B478B"/>
<path d="M44.4009 222.662C44.4009 222.662 51.927 217.476 54.3821 219.289C56.8373 221.079 57.0438 225.369 46.8102 225.736L44.4009 222.662Z" fill="#B56F40"/>
<path d="M47.5903 225.645C44.8139 226.058 30.5647 229.362 20.4229 230.647C21.3177 226.31 22.7174 223.373 24.2089 221.377L47.0625 221.79L47.5903 225.645Z" fill="#B56F40"/>
<path d="M54.9325 155.891C54.5424 155.432 53.9229 155.157 53.1886 155.157H49.5173C48.829 155.157 48.3242 155.363 48.0718 155.753C47.957 155.937 47.8882 156.143 47.8653 156.35C47.2457 156.189 46.6492 156.281 46.2361 156.373C46.2132 156.143 46.1444 155.937 46.0296 155.73C45.7772 155.34 45.2724 155.134 44.5841 155.134H40.9128C40.2015 155.134 39.559 155.409 39.1689 155.868C38.8248 156.304 38.71 156.855 38.8248 157.474C39.2378 159.539 41.6241 159.815 42.8173 159.815C43.1844 159.815 43.4368 159.792 43.4827 159.792C44.607 159.792 45.3872 159.149 45.9608 157.795C46.0526 157.566 46.2132 157.13 46.2361 156.671C46.6262 156.556 47.2457 156.464 47.8423 156.648C47.8653 157.107 48.0259 157.566 48.1177 157.795C48.6913 159.149 49.4714 159.792 50.5958 159.792C50.6417 159.792 50.8941 159.815 51.2612 159.815C52.4544 159.815 54.8407 159.539 55.2537 157.474C55.4143 156.878 55.2996 156.327 54.9325 155.891ZM45.7772 157.726C45.2495 158.988 44.5382 159.585 43.5286 159.585H43.5056C43.5056 159.585 42.519 159.7 41.4635 159.493C40.1097 159.218 39.3066 158.53 39.1001 157.474C38.9854 156.923 39.1001 156.442 39.3984 156.074C39.7426 155.661 40.3162 155.432 40.9587 155.432H44.63C45.2495 155.432 45.6625 155.593 45.869 155.914C45.9837 156.074 46.0296 156.281 46.0526 156.487C45.869 156.556 45.7543 156.602 45.7313 156.602C45.6625 156.625 45.6166 156.717 45.6625 156.786C45.6854 156.832 45.7313 156.878 45.8002 156.878C45.8231 156.878 45.8461 156.878 45.869 156.855C45.869 156.855 45.9378 156.832 46.0755 156.786C45.9837 157.176 45.8231 157.543 45.7772 157.726ZM55.0472 157.451C54.8407 158.507 54.0376 159.195 52.6838 159.47C51.6513 159.677 50.6646 159.562 50.6417 159.562H50.6187C49.6091 159.562 48.8978 158.966 48.3701 157.704C48.3012 157.543 48.1636 157.13 48.1177 156.717C48.1865 156.74 48.2553 156.786 48.3242 156.809C48.393 156.855 48.4848 156.809 48.5077 156.74C48.5536 156.671 48.5077 156.579 48.4389 156.556C48.3242 156.487 48.2095 156.442 48.0947 156.419C48.1177 156.212 48.1636 156.029 48.2553 155.868C48.4618 155.547 48.8978 155.386 49.4944 155.386H53.1657C53.8081 155.386 54.3818 155.616 54.726 156.029C55.0701 156.419 55.1619 156.9 55.0472 157.451Z" fill="#2C3A64"/>
<path d="M44.0566 164.311C44.0566 164.311 48.0721 163.875 49.9536 164.311C49.9536 164.311 48.967 165.941 47.3149 165.941C45.6858 165.941 44.4467 165.344 44.0566 164.311Z" fill="#FFF0E6"/>
<path d="M228.744 151.668C226.794 151.026 224.66 151.347 223.191 151.714C223.49 151.255 224.201 150.957 224.201 150.957C223.26 151.003 221.402 152.334 221.402 152.334C207.68 149.993 209.47 169.13 210.617 173.421C211.765 177.711 205.133 190.171 200.567 196.251C187.741 213.3 208.254 231.06 208.254 231.06C224.867 245.01 217.317 217.958 217.317 217.958C216.285 214.516 228.767 192.672 236.11 185.421C237.555 181.979 237.211 176.472 237.188 176.036C237.693 180.35 237.441 182.897 237.073 184.366C242.925 176.312 233.953 153.366 228.744 151.668Z" fill="#163560"/>
<path d="M262.864 214.539C262.864 216.397 261.946 218.761 260.616 221.193C257.312 227.274 251.529 233.79 251.529 233.79L248.179 229.017C248.179 229.017 250.221 223.969 251.575 219.793C252.378 217.292 252.952 215.112 252.677 214.539C251.942 213.001 237.441 195.838 237.441 195.838L233.494 182.553C233.494 182.553 243.154 183.058 247.261 189.069C251.346 195.127 262.864 209.56 262.864 214.539Z" fill="#BC3F3F"/>
<path d="M260.616 221.193C257.311 227.274 251.529 233.79 251.529 233.79L248.179 229.018C248.179 229.018 250.221 223.97 251.575 219.793C253.181 220.78 256.004 221.675 260.616 221.193Z" fill="#FFB27D"/>
<path d="M220.53 334.199L223.995 348.816L229.18 348.793L229.387 334.199H220.53Z" fill="#FFB27D"/>
<path d="M264.264 334.819L274.131 348.815L277.986 343.882L272.043 332.891L264.264 334.819Z" fill="#FFB27D"/>
<path d="M234.182 186.867C234.228 186.89 230.006 189.07 226.84 188.198C223.857 187.395 221.907 183.517 221.952 183.517C223.214 183.264 223.582 181.521 223.559 174.086L224.132 174.201L233.723 176.105C233.723 176.105 233.494 179.134 233.494 181.979C233.494 184.343 233.632 186.614 234.182 186.867Z" fill="#FFB27D"/>
<path d="M218.786 156.854C218.786 156.854 222.434 150.98 229.203 154.491C229.203 154.491 225.693 154.605 218.786 156.854Z" fill="#5FABB7"/>
<path d="M233.724 176.082C233.724 176.082 233.494 179.111 233.494 181.956C228.125 181.796 225.28 176.908 224.132 174.201L233.724 176.082Z" fill="#EF9E67"/>
<path d="M222.136 174.522C222.136 174.522 218.511 170.713 217.088 167.133C216.079 164.563 215.436 154.422 225.647 153.848C225.647 153.848 228.584 153.55 231.659 154.835C234.114 155.844 237.831 158.368 236.11 167.661L235.789 170.759L222.136 174.522Z" fill="#163560"/>
<path d="M277.068 340.693C277.068 340.693 274.521 341.129 272.433 341.289C271.974 341.335 271.515 341.335 271.148 341.335C270.138 341.335 268.325 340.945 267.109 340.67L267.018 340.647C266.49 340.509 266.077 340.417 265.916 340.372L265.847 340.349C265.847 340.349 253.136 326.191 245.999 303.498C245.839 302.97 245.655 302.443 245.472 301.892C241.571 290.511 233.471 276.216 229.203 263.275C228.515 261.21 227.918 259.282 227.368 257.447C227.184 256.85 227.024 256.276 226.863 255.703C223.719 244.781 222.802 237.622 221.976 229.958L247.629 236.475C247.583 236.52 258.367 283.191 277.068 340.693Z" fill="#A53D38"/>
<path d="M235.398 177.62C235.398 177.62 222.985 180.327 221.425 172.572C219.841 164.816 217.203 159.952 225.05 157.886C232.897 155.821 235.054 158.46 236.201 160.938C237.349 163.393 238.588 176.702 235.398 177.62Z" fill="#FFB27D"/>
<path d="M230.672 156.555C230.672 156.555 229.089 166.353 224.133 168.739C219.176 171.149 216.629 170.185 216.629 170.185C216.629 170.185 220.002 166.192 219.704 160.456C219.704 160.456 227.23 152.723 230.672 156.555Z" fill="#163560"/>
<path d="M229.983 157.451C229.983 157.451 232.943 158.965 233.953 160.824C234.963 162.682 236.064 166.675 237.234 166.308C237.234 166.308 238.565 159.608 234.963 156.694C231.154 153.596 229.983 157.451 229.983 157.451Z" fill="#163560"/>
<path d="M223.811 348.012C223.811 348.012 224.224 350.904 223.146 354.001C223.146 354.001 222.297 357.879 226.106 357.948C229.915 358.017 230.855 357.65 230.419 355.286C229.983 352.9 229.157 348.793 229.157 348.793L223.811 348.012Z" fill="#FFB27D"/>
<path d="M223.146 354.001C223.146 354.001 222.297 358.086 222.733 360.013C222.733 360.013 224.018 360.472 226.794 360.472C229.433 360.472 230.97 360.013 230.97 360.013C230.97 360.013 230.879 355.584 230.167 353.886C230.19 353.909 227.483 357.971 223.146 354.001Z" fill="#C45446"/>
<path d="M287.187 355.676C287.187 355.676 280.142 347.852 277.985 343.882L272.754 346.567L284.456 357.558L287.187 357.191V355.676Z" fill="#FFB27D"/>
<path d="M291.661 360.242C291.661 360.242 284.089 360.242 282.804 360.104C281.496 359.967 280.464 358.085 279.064 355.286C278.49 354.139 277.205 353.496 275.875 353.152L275.898 360.013H273.81L271.974 352.739C270.735 350.444 271.882 348.379 272.754 346.567C273.764 346.567 276.517 347.255 281.726 353.129C283.447 355.056 285.328 355.745 287.187 355.676C287.21 355.699 287.233 355.699 287.256 355.722C291.592 357.649 291.661 360.242 291.661 360.242Z" fill="#C45446"/>
<path d="M272.409 341.289C271.951 341.335 271.492 341.335 271.125 341.335C270.115 341.335 268.302 340.945 267.086 340.67L266.994 340.647L265.893 340.371L265.824 340.349C265.824 340.349 253.112 326.191 245.976 303.498C245.816 302.97 245.632 302.443 245.449 301.892C241.548 290.511 233.448 276.216 229.18 263.275C228.492 261.21 227.895 259.282 227.345 257.447C227.161 256.85 227 256.276 226.84 255.703L231.383 252.261C231.383 252.261 244.99 274.312 249.212 295.054C252.699 312.286 267.752 334.589 272.409 341.289Z" fill="#912F2F"/>
<path d="M231.842 297.028C231.911 307.124 231.406 330.321 230.098 339.913C230.098 339.913 228.859 341.014 225.761 341.037C222.595 341.06 221.172 339.89 221.172 339.89C217.868 323.185 215.528 309.372 213.83 297.464C212.43 287.689 211.191 279.314 210.227 272.109C209.378 265.73 208.759 260.246 208.46 255.519C208.415 254.877 208.392 254.257 208.346 253.638C208.3 252.835 208.277 252.032 208.254 251.274C208.231 250.517 208.231 249.76 208.231 249.026H208.346L214.725 248.406L234.848 246.433C234.549 264.124 231.796 291.154 231.842 297.028Z" fill="#A53D38"/>
<path d="M225.761 341.037C223.077 341.198 221.172 339.89 221.172 339.89C217.868 323.186 215.528 309.373 213.83 297.464C212.43 287.689 211.191 279.314 210.227 272.109C209.378 265.73 208.759 260.246 208.46 255.52C208.415 253.202 208.392 250.953 208.369 249.026C208.346 247.076 208.3 245.401 208.254 244.253L214.747 248.407L221.562 252.766C221.562 252.766 211.879 261.577 214.266 278.213C216.652 294.871 222.457 338.674 225.761 341.037Z" fill="#912F2F"/>
<path d="M251.14 250.953C243.407 252.949 207.383 256.919 207.084 247.902C207.015 245.699 207.084 243.037 207.268 240.169C207.796 231.243 209.264 220.229 209.975 214.172C210.297 211.395 209.218 198.959 210.044 192.167C210.159 191.157 210.32 190.285 210.549 189.574C212.109 184.457 219.108 183.058 222.687 182.943L233.517 182.576C233.517 182.576 244.715 195.081 246.252 198.913C247.79 202.745 248.317 215.893 249.533 222.248C250.704 228.627 254.88 249.99 251.14 250.953Z" fill="#BC3F3F"/>
<path d="M229.846 220.459C229.846 220.459 223.834 238.953 207.245 240.169C207.772 231.243 209.241 220.229 209.952 214.172C210.273 211.395 209.195 198.959 210.021 192.167C210.228 192.213 210.434 192.328 210.664 192.374C228.928 195.907 231.521 216.604 229.846 220.459Z" fill="#A53D38"/>
<path d="M244.555 201.788L225.32 199.74L222.203 229.014L241.437 231.062L244.555 201.788Z" fill="#2B478B"/>
<path d="M225.303 199.739L224.086 199.647L221.172 228.903L222.182 229.017L225.303 199.739Z" fill="#163560"/>
<path d="M209.08 212.703C209.08 212.703 222.664 216.856 235.628 218.715C235.628 218.715 239.918 220.574 237.899 221.078C237.394 221.216 211.397 226.884 207.565 223.189L209.08 212.703Z" fill="#FFB27D"/>
<path d="M222.664 182.943C222.664 182.943 215.528 182.989 212.476 186.454C206.923 192.809 205.822 219.793 207.566 223.189C208.323 224.658 214.105 224.772 216.56 217.705C217.822 214.057 223.352 189.597 222.664 182.943Z" fill="#BC3F3F"/>
<path d="M234.366 218.531C234.366 218.531 235.972 218.394 236.271 217.866C236.867 216.856 237.831 216.856 238.634 216.719C239.437 216.581 240.332 215.709 240.493 215.893C240.653 216.076 239.896 217.04 239.483 217.384C239.483 217.384 240.332 217.43 240.906 217.178C241.479 216.902 243.2 214.677 243.476 215.617C244.187 218.096 243.453 220.459 241.456 220.642C239.322 220.849 234.022 221.882 234.022 221.882L234.366 218.531Z" fill="#FFB27D"/>
<path d="M301.045 229.982C290.903 227.412 279.752 211.671 279.752 211.671L282.597 209.193C285.557 212.681 297.833 218.669 297.833 218.669C297.764 215.48 297.856 212.566 298.062 209.927C299.416 191.938 306.208 185.949 308.067 184.618C308.365 184.412 308.526 184.32 308.526 184.32C308.526 184.32 308.526 184.458 308.548 184.687C308.571 185.215 308.617 186.293 308.686 187.785C309.076 198.822 309.512 232.138 301.045 229.982Z" fill="#D9935C"/>
<path d="M282.62 209.193C282.574 208.757 282.299 202.585 281.06 201.414C279.821 200.244 277.412 198.638 276.7 198.776C276.012 198.913 273.649 202.837 274.75 205.545C275.874 208.252 279.752 211.671 279.752 211.671L282.62 209.193Z" fill="#D9935C"/>
<path d="M285.144 209.927L278.467 210.203C278.238 210.203 278.054 210.042 278.054 209.813L277.526 197.078C277.526 196.849 277.687 196.665 277.916 196.665L284.594 196.39C284.823 196.39 285.007 196.55 285.007 196.78L285.534 209.514C285.534 209.721 285.351 209.905 285.144 209.927Z" fill="#F1A34F"/>
<path d="M283.4 209.996L277.343 210.248C276.953 210.271 276.609 209.95 276.609 209.56L276.104 197.445C276.081 197.055 276.402 196.71 276.792 196.71L282.85 196.458C283.24 196.435 283.584 196.756 283.584 197.146L284.089 209.262C284.089 209.652 283.79 209.973 283.4 209.996Z" fill="#D86713"/>
<path d="M276.195 199.235C276.195 199.235 278.008 197.193 279.844 198.753C281.656 200.313 279.729 203.617 278.146 204.535C276.562 205.453 276.058 205.912 276.058 205.912L276.195 199.235Z" fill="#D9935C"/>
<path d="M323.119 334.59C322.5 337.045 321.811 339.385 321.123 341.565C320.985 342.024 320.825 342.483 320.687 342.942C320.618 343.171 320.549 343.378 320.457 343.607C320.32 344.043 320.159 344.456 320.021 344.869C319.838 345.397 319.654 345.925 319.471 346.43C319.333 346.797 319.195 347.187 319.058 347.531C316.993 353.038 315.272 356.549 315.272 356.549L311.164 356.273C311.164 356.273 312.702 348.954 313 338.468C313 338.1 313.023 337.71 313.023 337.343C313.046 336.54 313.046 335.691 313.046 334.865C313.046 334.521 313.046 334.177 313.046 333.81C312.954 324.792 311.853 314.122 308.273 303.935C305.382 295.651 303.271 287.896 301.757 280.897C296.847 258.296 297.994 243.45 297.994 243.45L321.031 246.158L322.109 246.273C322.201 256.851 322.477 271.237 322.706 282.458C322.752 284.408 322.775 286.267 322.821 287.988C322.981 295.192 323.096 300.126 323.096 300.126C327.616 309.694 326.01 323.163 323.119 334.59Z" fill="#CB7D45"/>
<path d="M316.534 164.311C316.534 164.311 321.995 168.946 316.993 174.293C316.993 174.293 321.169 174.706 322.569 173.558C322.569 173.558 322.293 174.132 322.041 174.385C322.041 174.385 326.699 174.545 328.626 173.1C330.554 171.654 329.315 147.814 316.396 150.475C316.396 150.475 305.428 149.649 306.461 162.315C307.471 175.004 303.34 175.004 303.34 175.004C303.34 175.004 304.488 175.578 305.038 175.578C305.038 175.578 305.841 175.256 306.002 174.82C306.002 174.82 305.841 175.532 305.635 175.738C305.635 175.738 310.109 176.151 312.335 174.476C314.538 172.801 317.153 166.927 316.534 164.311Z" fill="#233862"/>
<path d="M334.133 240.858C329.773 231.083 327.685 228.329 327.616 225.255C327.547 222.822 328.763 220.207 331.081 213.782C331.632 212.268 331.999 210.707 332.251 209.124C334.087 196.733 326.928 183.333 322.476 182.416C321.237 182.094 319.126 177.62 319.172 170.392L318.622 170.507L309.237 172.365C309.237 172.365 309.443 175.325 309.466 178.102C309.466 180.419 309.352 182.783 308.824 183.058C308.158 183.127 307.539 183.242 307.539 183.242C307.539 183.242 299.6 188.817 299.095 196.389C298.407 206.485 305.543 218.463 299.21 238.655C292.716 259.26 336.519 246.273 334.133 240.858Z" fill="#D9935C"/>
<path d="M309.191 172.366C309.191 172.366 309.397 175.326 309.42 178.102C314.675 177.964 317.451 173.169 318.576 170.507L309.191 172.366Z" fill="#CB7D45"/>
<path d="M319.54 169.497C319.54 169.497 322.293 165.161 322.959 161.444C323.44 158.782 322.087 148.961 312.197 150.361C312.197 150.361 309.329 150.636 306.621 152.472C304.465 153.917 301.367 157.061 304.832 165.643L305.727 168.534L319.54 169.497Z" fill="#233862"/>
<path d="M307.447 175.004C307.447 175.004 319.861 175.211 319.884 167.478C319.884 159.746 321.49 154.56 313.574 154.101C305.635 153.642 304.097 156.602 303.478 159.172C302.835 161.742 304.212 174.752 307.447 175.004Z" fill="#D9935C"/>
<path d="M307.906 153.895C307.906 153.895 311.302 162.981 316.533 164.312C321.742 165.643 324.013 164.266 324.013 164.266C324.013 164.266 320.021 161.077 319.172 155.524C319.172 155.524 310.476 149.581 307.906 153.895Z" fill="#233862"/>
<path d="M308.755 154.629C308.755 154.629 306.208 156.648 305.588 158.621C304.969 160.594 304.694 164.656 303.5 164.518C303.5 164.518 300.93 158.346 303.822 154.858C306.873 151.164 308.755 154.629 308.755 154.629Z" fill="#233862"/>
<path d="M350.286 251.229L346.546 252.353C346.546 252.353 334.247 231.955 333.123 226.631C332.756 224.91 331.861 221.446 330.829 217.568C328.672 209.537 325.872 199.716 325.872 199.716L324.955 195.747L321.834 182.186C321.834 182.186 327.823 182.806 331.333 184.274C332.504 184.756 333.376 185.33 333.697 186.018C336.267 191.685 338.837 205.98 340.649 216.168C341.659 221.859 342.416 226.264 342.829 227.205C343.93 229.798 347.349 244.162 350.286 251.229Z" fill="#D9935C"/>
<path d="M308.273 154.95C308.273 154.95 310.706 164.45 317.291 167.501C317.291 167.501 310.706 161.65 310.155 155.386C309.581 149.099 308.273 154.95 308.273 154.95Z" fill="#233862"/>
<path d="M336.335 332.617C335.005 346.751 329.176 355.906 329.176 355.906L327.18 357.719C327.18 357.719 325.367 347.371 324.06 335.508C322.821 324.242 321.1 312.31 319.172 308.685C316.281 303.246 314.147 292.118 312.61 280.37C310.063 260.935 309.168 239.756 309.168 239.756L332.526 238.609C334.867 242.556 335.899 249.049 336.152 256.415C336.404 264.17 335.808 272.89 334.959 280.691C333.765 291.613 332.136 300.722 331.746 302.765C331.7 303.04 331.769 303.292 331.907 303.545C336.542 312.746 337.23 323.278 336.335 332.617Z" fill="#D9935C"/>
<path d="M309.076 208.39C308.549 221.217 306.621 233.928 301.046 233.125C294.185 232.116 292.418 225.737 292.051 220.987C291.821 218.027 292.143 215.71 292.143 215.71C292.143 215.71 295.516 215.687 296.066 215.182C298.659 212.796 297.879 189.322 299.164 186.89C300.449 184.458 308.755 182.898 308.755 182.898C308.755 182.898 309.604 195.701 309.076 208.39Z" fill="#EE9849"/>
<path d="M309.076 208.39C308.549 221.216 306.621 233.928 301.045 233.125C294.185 232.115 292.418 225.737 292.051 220.987C293.726 220.895 296.686 220.482 297.879 218.692C299.554 216.122 304.808 199.579 304.808 199.579C304.808 199.579 306.874 203.296 309.076 208.39Z" fill="#E58638"/>
<path d="M323.119 334.59C322.5 337.045 321.811 339.385 321.123 341.565C320.985 342.024 320.825 342.483 320.687 342.942C320.618 343.171 320.549 343.378 320.457 343.607C320.32 344.043 320.159 344.456 320.021 344.869C319.838 345.397 319.654 345.925 319.471 346.429C319.333 346.797 319.195 347.187 319.058 347.531C316.993 353.038 315.272 356.548 315.272 356.548L311.164 356.273C311.164 356.273 312.702 348.953 313 338.467C313 338.1 313.023 337.71 313.023 337.343C313.046 336.54 313.046 335.691 313.046 334.865C313.046 334.521 313.046 334.177 313.046 333.809C312.954 324.792 311.853 314.122 308.273 303.935C305.382 295.651 303.271 287.896 301.757 280.897C304.189 281.402 306.346 280.897 312.564 280.37C313.207 280.324 316.35 284.178 319.425 289.318C319.585 296.523 323.119 300.149 323.119 300.149C327.616 309.694 326.01 323.163 323.119 334.59Z" fill="#233862"/>
<path d="M336.335 332.616C335.005 346.751 329.176 355.906 329.176 355.906L327.18 357.719C327.18 357.719 325.368 347.37 324.06 335.508C322.821 324.241 321.1 312.31 319.172 308.684C316.281 303.246 314.147 292.118 312.61 280.37C314.767 281.265 322.086 283.582 334.959 280.668C333.766 291.59 332.136 300.699 331.746 302.741C331.7 303.017 331.769 303.269 331.907 303.522C336.542 312.746 337.23 323.278 336.335 332.616Z" fill="#2B478B"/>
<path d="M340.81 263.803C340.81 263.803 335.922 265.318 328.718 266.304C319.792 267.543 307.332 267.979 296.204 263.803C296.204 263.803 295.286 247.237 297.925 238.609C300.563 229.982 301.802 225.829 301.802 225.829C301.802 225.829 312.38 228.467 323.096 226.425C324.61 226.15 326.125 225.76 327.593 225.255C327.593 225.255 334.224 239.32 336.037 245.332C337.85 251.344 340.81 263.803 340.81 263.803Z" fill="#2B478B"/>
<path d="M340.81 263.803C340.81 263.803 335.922 265.318 328.717 266.304C315.501 258.824 321.948 227.297 321.948 227.297C322.339 226.976 322.729 226.678 323.096 226.425C324.61 226.15 326.125 225.76 327.593 225.255C327.593 225.255 334.224 239.32 336.037 245.332C337.85 251.344 340.81 263.803 340.81 263.803Z" fill="#233862"/>
<path d="M351.64 232.276C351.64 235.511 348.359 237.485 344.825 238.448C341.429 239.366 337.827 239.366 336.68 238.609C334.729 237.301 331.54 222.777 330.622 218.348C330.461 217.545 330.37 217.086 330.37 217.086C330.37 217.086 327.846 223.144 327.754 223.694C327.708 223.947 327.685 224.291 327.662 224.612C327.639 224.979 327.616 225.301 327.616 225.301C327.616 225.301 313.849 232.253 301.803 225.874C301.803 225.874 296.915 197.583 299.026 192.695C300.082 190.286 305.589 185.284 307.791 183.127C308.296 182.645 308.227 181.681 308.044 180.809C307.883 180.075 308.549 179.41 309.283 179.616C310.705 179.983 313.252 179.915 315.983 179.02C317.337 178.584 318.759 177.918 320.09 177.023C320.48 176.748 321.008 177 321.054 177.459C321.26 179.157 321.765 182.232 322.706 182.232C323.991 182.232 332.733 183.288 333.375 184.389C333.605 184.756 335.877 189.919 338.745 196.734C338.745 196.734 338.745 196.734 338.745 196.757C344.16 209.468 351.64 228.146 351.64 232.276Z" fill="#EE9849"/>
<path d="M330.347 217.063C330.347 217.063 327.823 223.121 327.731 223.672C327.685 223.924 327.662 224.268 327.639 224.59C326.423 225.599 324.932 226.356 323.417 226.815C319.126 228.123 317.268 219.886 317.52 215.801C317.773 211.694 323.853 199.992 325.872 199.74C327.891 199.487 330.347 217.063 330.347 217.063Z" fill="#E58638"/>
<path d="M330.622 218.325C330.461 217.522 330.37 217.063 330.37 217.063C330.484 217.499 330.576 217.912 330.622 218.325Z" fill="#E58638"/>
<path d="M313.023 228.949C305.199 228.949 301.963 226.264 301.734 226.08L301.229 222.386C301.298 222.432 311.807 228.742 328.075 222.707L327.731 225.507C321.467 227.824 317.084 228.949 313.023 228.949Z" fill="#B64C41"/>
<path d="M351.64 232.276C351.64 235.511 348.359 237.485 344.825 238.448C349.69 232.643 339.043 197.606 338.768 196.711C344.16 209.468 351.64 228.146 351.64 232.276Z" fill="#E58638"/>
<path d="M322.706 182.186C322.706 182.186 316.167 186.339 311.211 185.353C311.211 185.353 310.017 184.595 311.669 183.838C313.207 183.127 316.786 181.039 316.006 178.974C317.36 178.538 318.783 177.872 320.113 176.978C320.503 176.702 321.031 176.955 321.077 177.413C321.284 179.111 321.788 182.186 322.706 182.186Z" fill="#E58638"/>
<path d="M317.658 359.991H315.042C314.17 359.853 313.528 359.601 312.61 359.486C311.256 359.302 310.614 359.876 310.499 359.991C310.476 360.014 310.476 360.014 310.476 360.014H299.37C299.095 359.624 299.37 358.683 299.623 358.017C299.806 357.558 300.197 357.214 300.655 357.077C301.826 356.732 304.166 356.434 306.277 354.507C307.47 353.428 312.059 350.537 312.059 350.537H312.082C312.174 350.537 312.656 350.698 314.744 352.442C315.822 353.359 317.658 351.157 317.658 351.157C317.658 351.157 318.002 351.432 318.255 351.983C318.461 352.396 318.622 352.969 318.484 353.681C318.323 354.69 318.851 356.549 319.287 357.811C319.54 358.568 319.769 359.119 319.769 359.119C319.769 359.119 319.907 359.715 317.658 359.991Z" fill="#233862"/>
<path d="M318.277 351.96C317.658 352.396 316.327 353.268 315.455 353.382C314.285 353.543 312.059 350.514 312.059 350.514H312.082C312.174 350.514 312.656 350.675 314.744 352.419C315.822 353.336 317.658 351.134 317.658 351.134C317.658 351.134 318.002 351.432 318.277 351.96Z" fill="#466AA5"/>
<path d="M317.658 359.991H315.042C314.17 359.853 313.528 359.601 312.61 359.486C311.256 359.302 310.614 359.876 310.499 359.991C310.476 360.014 310.476 360.014 310.476 360.014H299.37C299.095 359.624 299.37 358.683 299.623 358.018C299.967 357.719 300.059 359.325 300.242 359.578C300.426 359.83 309.306 359.67 309.811 359.303C310.315 358.935 311.853 358.27 314.01 358.798C315.868 359.234 318.622 358.109 319.31 357.788C319.562 358.545 319.792 359.096 319.792 359.096C319.792 359.096 319.907 359.716 317.658 359.991Z" fill="#466AA5"/>
<path d="M331.609 359.991H328.993C328.121 359.853 327.479 359.601 326.561 359.486C325.207 359.302 324.564 359.876 324.45 359.991C324.427 360.014 324.427 360.014 324.427 360.014H313.321C313.046 359.624 313.321 358.683 313.574 358.017C313.757 357.558 314.147 357.214 314.606 357.077C315.776 356.732 318.117 356.434 320.228 354.507C321.421 353.428 326.01 350.537 326.01 350.537H326.033C326.125 350.537 326.607 350.698 328.695 352.442C329.773 353.359 331.609 351.157 331.609 351.157C331.609 351.157 331.953 351.432 332.205 351.983C332.412 352.396 332.572 352.969 332.435 353.681C332.274 354.69 332.802 356.549 333.238 357.811C333.49 358.568 333.72 359.119 333.72 359.119C333.72 359.119 333.857 359.715 331.609 359.991Z" fill="#233862"/>
<path d="M332.228 351.96C331.608 352.396 330.278 353.268 329.406 353.382C328.235 353.543 326.01 350.514 326.01 350.514H326.033C326.124 350.514 326.606 350.675 328.694 352.419C329.773 353.336 331.608 351.134 331.608 351.134C331.608 351.134 331.953 351.432 332.228 351.96Z" fill="#466AA5"/>
<path d="M331.609 359.991H328.993C328.121 359.853 327.479 359.601 326.561 359.486C325.207 359.302 324.564 359.876 324.45 359.991C324.427 360.014 324.427 360.014 324.427 360.014H313.321C313.046 359.624 313.321 358.683 313.574 358.018C313.918 357.719 314.01 359.325 314.193 359.578C314.377 359.83 323.257 359.67 323.761 359.303C324.266 358.935 325.803 358.27 327.96 358.798C329.819 359.234 332.572 358.109 333.261 357.788C333.513 358.545 333.743 359.096 333.743 359.096C333.743 359.096 333.857 359.716 331.609 359.991Z" fill="#466AA5"/>
<path d="M359.51 267.131C359.258 265.823 358.34 264.767 357.101 264.309C355.082 263.551 351.801 262.886 347.739 264.079C340.902 266.098 340.236 270.297 340.672 273.326C341.108 276.355 339.777 281.173 339.984 284.592C340.19 288.011 341.154 296.639 346.225 296.18C351.296 295.721 367.61 291.338 367.61 291.338C367.61 291.338 370.432 285.969 364.627 278.191C361.208 273.601 359.969 269.402 359.51 267.131Z" fill="#D37129"/>
<path d="M356.39 263.161L355.036 263.276C355.036 263.276 354.876 262.335 354.256 261.761C353.774 261.302 353.109 261.142 352.283 261.28C351.503 261.394 350.952 261.761 350.654 262.335C350.264 263.138 350.47 264.194 350.47 264.194L349.139 264.492C349.116 264.423 348.749 262.725 349.437 261.302C349.919 260.316 350.768 259.742 351.939 259.536C353.155 259.352 354.187 259.627 354.99 260.408C356.138 261.509 356.367 263.092 356.39 263.161Z" fill="#D37129"/>
<path d="M370.983 290.582C370.983 290.582 354.646 294.988 349.575 295.424C344.504 295.882 343.518 287.278 343.334 283.836C343.128 280.417 344.481 275.599 344.022 272.57C343.931 271.996 343.885 271.354 343.931 270.711C344.068 268.004 345.583 264.952 351.09 263.323C355.151 262.13 358.432 262.818 360.451 263.552C361.69 264.011 362.608 265.067 362.861 266.352C362.93 266.627 362.975 266.948 363.044 267.247C363.618 269.656 364.972 273.396 368 277.434C373.806 285.213 370.983 290.582 370.983 290.582Z" fill="#F1A34F"/>
<path opacity="0.4" d="M345.812 284.546L355.656 282.32C355.656 282.32 357.95 289.364 353.292 290.649C348.634 291.934 346.707 289.227 345.812 284.546Z" fill="#D86713"/>
<path d="M345.812 284.546C345.812 284.546 348.084 286.726 351.158 285.968C354.233 285.188 355.656 282.32 355.656 282.32L345.812 284.546Z" fill="#D37129"/>
<path opacity="0.4" d="M357.652 281.884L367.496 279.659C367.496 279.659 369.79 286.703 365.133 287.988C360.475 289.273 358.547 286.542 357.652 281.884Z" fill="#D86713"/>
<path d="M357.652 281.884C357.652 281.884 359.924 284.064 362.999 283.307C366.073 282.527 367.496 279.659 367.496 279.659L357.652 281.884Z" fill="#D37129"/>
<path opacity="0.4" d="M362.884 266.373C362.952 266.649 362.998 266.97 363.067 267.268C361.759 269.953 359.304 273.372 355.128 274.175C348.038 275.551 343.954 270.71 343.954 270.71C344.091 268.002 345.606 264.951 351.113 263.321C355.174 262.128 358.455 262.817 360.474 263.551C361.69 264.033 362.608 265.065 362.884 266.373Z" fill="#D86713"/>
<path d="M355.22 275.666C354.784 275.758 354.325 275.483 354.233 275.047L354.072 274.313C353.981 273.877 354.256 273.418 354.692 273.326C355.128 273.234 355.587 273.51 355.679 273.946L355.839 274.68C355.954 275.116 355.656 275.575 355.22 275.666Z" fill="#D86713"/>
<path d="M350.011 250.609C350.011 250.609 351.135 253.271 352.329 254.028C353.522 254.785 354.623 256.552 354.876 257.998C355.335 260.637 353.292 262.289 351.801 262.289C350.309 262.289 348.887 260.246 348.015 255.405C347.969 255.13 346.546 252.353 346.546 252.353L350.011 250.609Z" fill="#D9935C"/>
<path d="M155.067 150.43C153.277 147.722 146.21 149.236 139.257 153.802C132.305 158.369 128.129 164.266 129.919 166.973C131.708 169.681 138.776 168.166 145.728 163.6C152.658 159.034 156.834 153.137 155.067 150.43Z" fill="#233862"/>
<path d="M118.79 250.931L120.167 251.023C120.144 251 120.694 227.091 122.805 217.408C126.706 199.372 136.917 185.284 137.031 185.146L134.576 184.366C134.462 184.504 132.511 187.487 129.781 193.039C127.257 198.133 123.195 206.646 121.383 216.536C119.616 226.31 118.744 250.816 118.79 250.931Z" fill="#BC3F3F"/>
<path d="M143.571 150.223C143.571 150.223 134.599 148.318 130.308 155.592C126.018 162.889 125.765 175.555 122.897 179.685C120.029 183.838 114.981 201.299 120.35 205.223C125.719 209.124 158.852 205.085 160.711 203.296C162.57 201.506 160.596 183.149 157.361 177.826C154.103 172.503 161.996 147.492 143.571 150.223Z" fill="#A53D38"/>
<path d="M156.902 229.981C167.044 227.411 178.196 211.671 178.196 211.671L175.35 209.193C172.391 212.68 160.115 218.669 160.115 218.669C160.184 215.48 160.092 212.566 159.885 209.927C158.531 191.938 151.74 185.949 149.881 184.618C149.583 184.411 149.422 184.32 149.422 184.32C149.422 184.32 149.422 184.457 149.399 184.687C149.376 185.215 149.33 186.293 149.262 187.784C148.894 198.821 148.435 232.138 156.902 229.981Z" fill="#FFB27D"/>
<path d="M175.328 209.193C175.374 208.757 175.649 202.584 176.888 201.414C178.127 200.244 180.536 198.638 181.248 198.775C181.936 198.913 184.322 202.837 183.198 205.544C182.074 208.252 178.196 211.671 178.196 211.671L175.328 209.193Z" fill="#FFB27D"/>
<path d="M134.829 334.589C135.448 337.044 136.137 339.385 136.825 341.565C136.963 342.024 137.123 342.482 137.261 342.941C137.33 343.171 137.399 343.377 137.49 343.607C137.628 344.043 137.789 344.456 137.926 344.869C138.11 345.397 138.293 345.924 138.477 346.429C138.615 346.796 138.752 347.186 138.89 347.53C140.955 353.037 142.676 356.548 142.676 356.548L146.783 356.273C146.783 356.273 145.246 348.953 144.948 338.467C144.948 338.1 144.925 337.71 144.925 337.343C144.902 336.54 144.902 335.691 144.902 334.865C144.902 334.52 144.902 334.176 144.902 333.809C144.993 324.792 146.095 314.122 149.674 303.934C152.565 295.651 154.676 287.895 156.191 280.897C161.101 258.296 159.954 243.45 159.954 243.45L136.917 246.157L135.838 246.272C135.746 256.85 135.471 271.237 135.242 282.457C135.196 284.408 135.173 286.266 135.127 287.987C134.966 295.192 134.852 300.125 134.852 300.125C130.354 309.693 131.96 323.162 134.829 334.589Z" fill="#FFB27D"/>
<path d="M123.838 240.857C128.197 231.082 130.285 228.329 130.354 225.254C130.423 222.822 129.207 220.206 126.889 213.782C126.339 212.267 125.972 210.707 125.719 209.124C123.884 196.733 131.043 183.333 135.494 182.415C136.733 182.094 138.844 177.62 138.798 170.392L139.349 170.506L148.733 172.365C148.733 172.365 148.527 175.325 148.504 178.101C148.504 180.419 148.619 182.782 149.146 183.058C149.812 183.126 157.177 184.434 158.531 186.545C159.839 188.633 158.371 188.817 158.898 196.366C159.587 206.462 152.451 218.439 158.784 238.631C165.254 259.259 121.428 246.272 123.838 240.857Z" fill="#FFB27D"/>
<path d="M148.756 172.365C148.756 172.365 148.55 175.325 148.527 178.102C143.272 177.964 140.496 173.168 139.372 170.507L148.756 172.365Z" fill="#EF9E67"/>
<path d="M150.5 175.004C150.5 175.004 138.087 175.21 138.064 167.478C138.064 159.745 136.458 154.56 144.374 154.101C152.313 153.642 153.85 156.602 154.47 159.172C155.135 161.741 153.736 174.752 150.5 175.004Z" fill="#FFB27D"/>
<path d="M150.041 153.894C150.041 153.894 146.645 162.981 141.414 164.311C136.205 165.642 133.934 164.266 133.934 164.266C133.934 164.266 137.926 161.076 138.775 155.523C138.775 155.523 147.494 149.58 150.041 153.894Z" fill="#A53D38"/>
<path d="M149.215 154.629C149.215 154.629 151.762 156.648 152.382 158.621C153.001 160.594 153.277 164.656 154.47 164.518C154.47 164.518 157.04 158.346 154.149 154.858C151.074 151.164 149.215 154.629 149.215 154.629Z" fill="#A53D38"/>
<path d="M107.684 251.229L111.424 252.353C111.424 252.353 123.723 231.955 124.847 226.632C125.214 224.911 126.109 221.446 127.142 217.568C129.299 209.537 132.098 199.717 132.098 199.717L133.016 195.747L136.136 182.186C136.136 182.186 130.148 182.806 126.637 184.274C125.467 184.756 124.595 185.33 124.274 186.018C121.704 191.686 119.134 205.981 117.321 216.168C116.312 221.859 115.554 226.264 115.141 227.205C114.017 229.798 110.598 244.162 107.684 251.229Z" fill="#FFB27D"/>
<path d="M149.674 154.95C149.674 154.95 147.242 164.449 140.657 167.501C140.657 167.501 147.242 161.65 147.793 155.386C148.366 149.099 149.674 154.95 149.674 154.95Z" fill="#A53D38"/>
<path d="M121.612 332.616C122.943 346.751 128.771 355.906 128.771 355.906L130.767 357.719C130.767 357.719 132.58 347.37 133.888 335.507C135.127 324.241 136.848 312.31 138.775 308.684C141.667 303.246 143.8 292.118 145.338 280.37C147.885 260.935 148.78 239.756 148.78 239.756L125.421 238.609C123.081 242.556 122.048 249.049 121.796 256.415C121.543 264.17 122.14 272.889 122.989 280.691C124.182 291.613 125.811 300.722 126.201 302.764C126.247 303.04 126.178 303.292 126.041 303.545C121.406 312.746 120.74 323.278 121.612 332.616Z" fill="#FFB27D"/>
<path d="M165.92 220.987C165.553 225.736 163.763 232.138 156.925 233.125C154.493 233.469 152.772 231.289 151.533 227.664C149.927 222.914 149.17 215.686 148.894 208.413C148.619 201.529 148.734 194.599 148.894 189.712C151.694 189.391 156.856 187.004 158.44 186.431C158.485 186.477 158.531 186.523 158.577 186.568C158.6 186.614 158.646 186.637 158.669 186.683C158.715 186.752 158.761 186.844 158.807 186.913C159.495 188.221 159.587 195.494 159.931 202.355C160.229 208.367 160.711 214.08 161.904 215.181C162.455 215.686 165.828 215.709 165.828 215.709C165.828 215.709 166.149 218.027 165.92 220.987Z" fill="#FFB93E"/>
<path d="M148.871 208.39C149.399 221.216 151.326 233.928 156.902 233.125C163.763 232.116 165.53 225.737 165.897 220.987C164.222 220.895 161.262 220.482 160.068 218.692C158.393 216.123 153.139 199.579 153.139 199.579C153.139 199.579 151.097 203.296 148.871 208.39Z" fill="#FFA412"/>
<path d="M156.145 225.828C156.145 225.828 142.401 229.27 130.332 225.255C130.332 225.255 123.7 239.32 121.888 245.332C120.075 251.367 106.308 328.463 106.308 328.463C106.308 328.463 136.596 337.228 156.719 329.656C156.719 329.656 162.639 247.236 160.023 238.586C157.384 229.958 156.145 225.828 156.145 225.828Z" fill="#2B478B"/>
<path d="M159.908 202.286C158.899 212.221 156.145 225.713 156.145 225.713C154.631 226.516 153.07 227.113 151.533 227.526C140.863 230.417 130.354 225.14 130.354 225.14C130.354 225.14 130.332 224.841 130.309 224.451C130.286 224.153 130.263 223.809 130.217 223.534C130.148 222.96 127.601 216.948 127.601 216.948C127.601 216.948 127.509 217.407 127.349 218.21C126.431 222.616 123.241 237.117 121.291 238.425C120.167 239.182 116.541 239.182 113.145 238.264C109.612 237.301 106.331 235.327 106.331 232.115C106.331 228.008 113.811 209.399 119.203 196.641C119.203 196.619 119.203 196.619 119.203 196.619C122.071 189.827 123.746 185.1 125.926 184.572C125.926 184.572 140.703 190.584 148.871 189.666C151.671 189.345 156.833 186.981 158.417 186.385C158.463 186.431 158.509 186.477 158.554 186.523C158.577 186.568 158.623 186.591 158.646 186.637C158.669 186.683 158.715 186.729 158.738 186.775C159.931 188.542 159.748 191.479 159.816 192.58C159.931 194.783 160.367 197.835 159.908 202.286Z" fill="#FFB93E"/>
<path d="M127.601 217.063C127.601 217.063 130.125 223.121 130.216 223.671C130.262 223.924 130.285 224.268 130.308 224.589C131.524 225.599 133.016 226.356 134.53 226.815C138.821 228.123 140.679 219.885 140.427 215.801C140.175 211.694 134.094 199.992 132.075 199.739C130.056 199.487 127.601 217.063 127.601 217.063Z" fill="#FFA412"/>
<path d="M127.348 218.325C127.509 217.522 127.601 217.063 127.601 217.063C127.463 217.499 127.371 217.912 127.348 218.325Z" fill="#E58638"/>
<path d="M145.039 228.444C152.863 228.444 155.984 226.241 156.213 226.058L156.718 222.364C156.649 222.409 146.14 228.719 129.872 222.685L130.216 225.484C136.48 227.825 140.978 228.444 145.039 228.444Z" fill="#163560"/>
<path d="M106.331 232.276C106.331 235.511 109.612 237.484 113.145 238.448C108.281 232.643 118.928 197.605 119.203 196.71C113.811 209.468 106.331 228.146 106.331 232.276Z" fill="#FFA412"/>
<path d="M140.313 359.99H142.929C143.801 359.853 144.444 359.6 145.361 359.486C146.715 359.302 147.358 359.876 147.472 359.99C147.495 360.013 147.495 360.013 147.495 360.013H158.601C158.876 359.623 158.601 358.682 158.348 358.017C158.165 357.558 157.775 357.214 157.316 357.076C156.146 356.732 153.805 356.434 151.694 354.506C150.501 353.428 145.912 350.537 145.912 350.537H145.889C145.797 350.537 145.315 350.697 143.227 352.441C142.149 353.359 140.313 351.156 140.313 351.156C140.313 351.156 139.969 351.432 139.717 351.982C139.51 352.395 139.35 352.969 139.487 353.68C139.648 354.69 139.12 356.549 138.684 357.811C138.432 358.568 138.202 359.118 138.202 359.118C138.202 359.118 138.065 359.715 140.313 359.99Z" fill="#233862"/>
<path d="M139.693 351.959C140.313 352.395 141.644 353.267 142.516 353.382C143.686 353.543 145.912 350.514 145.912 350.514H145.889C145.797 350.514 145.315 350.675 143.227 352.418C142.149 353.336 140.313 351.133 140.313 351.133C140.313 351.133 139.946 351.432 139.693 351.959Z" fill="#466AA5"/>
<path d="M140.313 359.99H142.928C143.8 359.852 144.443 359.6 145.361 359.485C146.714 359.302 147.357 359.875 147.472 359.99C147.495 360.013 147.495 360.013 147.495 360.013H158.6C158.876 359.623 158.6 358.682 158.348 358.017C158.004 357.719 157.912 359.325 157.728 359.577C157.545 359.83 148.665 359.669 148.16 359.302C147.655 358.935 146.118 358.269 143.961 358.797C142.102 359.233 139.349 358.109 138.661 357.787C138.408 358.545 138.179 359.095 138.179 359.095C138.179 359.095 138.064 359.715 140.313 359.99Z" fill="#466AA5"/>
<path d="M126.339 359.99H128.954C129.826 359.853 130.469 359.6 131.387 359.486C132.74 359.302 133.383 359.876 133.498 359.99C133.521 360.013 133.521 360.013 133.521 360.013H144.626C144.902 359.623 144.626 358.682 144.374 358.017C144.19 357.558 143.8 357.214 143.341 357.076C142.171 356.732 139.831 356.434 137.72 354.506C136.526 353.428 131.937 350.537 131.937 350.537H131.914C131.823 350.537 131.341 350.697 129.253 352.441C128.174 353.359 126.339 351.156 126.339 351.156C126.339 351.156 125.995 351.432 125.742 351.982C125.536 352.395 125.375 352.969 125.513 353.68C125.673 354.69 125.146 356.549 124.71 357.811C124.457 358.568 124.228 359.118 124.228 359.118C124.228 359.118 124.09 359.715 126.339 359.99Z" fill="#233862"/>
<path d="M125.742 351.959C126.361 352.395 127.692 353.267 128.564 353.382C129.734 353.543 131.96 350.514 131.96 350.514H131.937C131.845 350.514 131.363 350.675 129.275 352.418C128.197 353.336 126.361 351.133 126.361 351.133C126.361 351.133 125.994 351.432 125.742 351.959Z" fill="#466AA5"/>
<path d="M126.339 359.99H128.954C129.826 359.852 130.469 359.6 131.387 359.485C132.74 359.302 133.383 359.875 133.498 359.99C133.52 360.013 133.52 360.013 133.52 360.013H144.626C144.901 359.623 144.626 358.682 144.374 358.017C144.029 357.719 143.938 359.325 143.754 359.577C143.571 359.83 134.691 359.669 134.186 359.302C133.681 358.935 132.144 358.269 129.987 358.797C128.128 359.233 125.375 358.109 124.686 357.787C124.434 358.545 124.205 359.095 124.205 359.095C124.205 359.095 124.09 359.715 126.339 359.99Z" fill="#466AA5"/>
<path d="M107.937 250.609C107.937 250.609 106.812 253.271 105.619 254.028C104.449 254.762 103.324 256.552 103.072 257.997C102.613 260.636 104.655 262.288 106.147 262.288C107.638 262.288 109.061 260.246 109.933 255.404C109.979 255.129 111.401 252.353 111.401 252.353L107.937 250.609Z" fill="#FFB27D"/>
<path d="M180.972 195.426L180.811 197.215L180.261 202.86L179.894 206.462H172.689L172.253 202.86L171.564 197.215L171.335 195.426H180.972Z" fill="#EE9849"/>
<path d="M181.5 195.425H170.784L170.991 194.347H181.224L181.5 195.425Z" fill="#D17A33"/>
<path d="M180.811 197.215L180.261 202.86H172.253L171.564 197.215H180.811Z" fill="#D17A33"/>
<path d="M181.752 199.235C181.752 199.235 179.939 197.193 178.104 198.753C176.291 200.313 178.218 203.617 179.802 204.535C181.385 205.453 181.89 205.912 181.89 205.912L181.752 199.235Z" fill="#FFB27D"/>
<path d="M140.45 251.046L139.073 250.954C139.096 250.931 141.758 226.999 140.978 217.063C139.509 198.546 131.295 183.104 131.203 182.966L133.75 182.507C133.842 182.645 135.379 185.903 137.353 191.8C139.165 197.238 142.056 206.256 142.515 216.375C142.928 226.356 140.519 250.931 140.45 251.046Z" fill="#BC3F3F"/>
<path d="M123.837 245.791C123.837 245.791 125.168 242.51 127.279 241.707L138.087 243.749C138.087 243.749 135.425 246.296 135.172 247.948L123.837 245.791Z" fill="#D2E4FF"/>
<path d="M137.398 264.262L118.927 260.774C118.055 260.614 117.482 259.765 117.642 258.916L119.96 246.686C120.12 245.814 120.969 245.24 121.818 245.401L140.289 248.888C141.161 249.049 141.735 249.898 141.574 250.747L139.257 262.977C139.119 263.872 138.27 264.422 137.398 264.262Z" fill="#912F2F"/>
<path d="M130.78 239.069L121.946 238.992L121.847 250.304L130.681 250.381L130.78 239.069Z" fill="#E58638"/>
<path d="M130.275 239.07L121.441 238.993L121.343 250.305L130.177 250.382L130.275 239.07Z" fill="#EE9849"/>
<path d="M135.642 245.838L128.627 240.468L121.751 249.451L128.767 254.821L135.642 245.838Z" fill="#578E9B"/>
<path d="M134.852 245.243L127.837 239.874L120.961 248.857L127.977 254.226L134.852 245.243Z" fill="#74ACBE"/>
<path d="M132.901 263.413L115.233 260.086C114.155 259.88 113.443 258.847 113.65 257.746L115.807 246.296C116.013 245.217 117.046 244.506 118.147 244.713L135.815 248.04C136.894 248.246 137.605 249.279 137.398 250.38L135.242 261.83C135.035 262.908 133.98 263.62 132.901 263.413Z" fill="#BC3F3F"/>
<path d="M128.725 160.273C128.725 160.273 123.08 149.03 130.974 144.578C138.867 140.127 144.649 141.871 148.986 147.309L128.725 160.273Z" fill="#233862"/>
<path d="M160.528 146.07C158.899 143.454 153.208 143.89 146.347 146.689C143.663 147.791 140.818 149.259 137.949 151.049C134.393 153.275 131.272 155.707 128.84 158.093C124.297 162.545 122.071 166.79 123.54 169.153C123.999 169.864 124.664 170.346 125.674 170.599C126.683 168.442 129.574 166.4 130.377 164.725C131.525 162.338 134.462 158.002 139.808 154.674C143.915 152.105 147.999 150.613 150.822 150.43C152.451 150.315 153.667 150.659 154.195 151.508C154.608 152.173 154.562 153.068 154.149 154.101C154.539 154.766 154.998 155.73 155.388 156.992C159.839 152.609 161.996 148.41 160.528 146.07Z" fill="#2B478B"/>
<path d="M40 10C23.4655 10 10 23.4655 10 40C10 56.5344 23.4655 70 40 70C56.5344 70 70 56.5344 70 40C70 23.4447 56.5344 10 40 10ZM40 68.0376C24.5303 68.0376 11.9624 55.4488 11.9624 40C11.9624 24.5303 24.5511 11.9624 40 11.9624C55.4697 11.9624 68.0375 24.5511 68.0375 40C68.0375 55.4697 55.4697 68.0376 40 68.0376Z" fill="#FB93AE"/>
<path d="M40 17.2447C40.6681 17.2447 41.19 16.7019 41.19 16.0547C41.19 15.3867 40.6472 14.8647 40 14.8647C39.332 14.8647 38.8101 15.4075 38.8101 16.0547C38.8101 16.7228 39.332 17.2447 40 17.2447Z" fill="#FB93AE"/>
<path d="M40 63.1316C39.332 63.1316 38.8101 63.6744 38.8101 64.3216C38.8101 64.9896 39.3528 65.5115 40 65.5115C40.6681 65.5115 41.19 64.9688 41.19 64.3216C41.19 63.6535 40.6681 63.1316 40 63.1316Z" fill="#FB93AE"/>
<path d="M62.9439 38.9982C62.2758 38.9982 61.7539 39.541 61.7539 40.1881C61.7539 40.8562 62.2967 41.3781 62.9439 41.3781C63.6119 41.3781 64.1338 40.8353 64.1338 40.1881C64.1338 39.5201 63.5911 38.9982 62.9439 38.9982Z" fill="#FB93AE"/>
<path d="M51.1692 59.1857C50.7099 59.6659 50.7308 60.4174 51.211 60.8767C51.6911 61.336 52.4427 61.3151 52.902 60.835C53.3613 60.3548 53.3404 59.6032 52.8602 59.1439C52.3801 58.6847 51.6076 58.7055 51.1692 59.1857Z" fill="#FB93AE"/>
<path d="M58.9978 51.7328C58.5385 52.213 58.5594 52.9645 59.0396 53.4238C59.5198 53.8831 60.2713 53.8622 60.7306 53.3821C61.1899 52.9019 61.169 52.1503 60.6888 51.691C60.2087 51.2526 59.4362 51.2735 58.9978 51.7328Z" fill="#FB93AE"/>
<path d="M60.3758 29.854C60.9603 29.5617 61.2109 28.8519 60.9395 28.2673C60.6472 27.6828 59.9374 27.4322 59.3528 27.7036C58.7474 27.9959 58.5177 28.7057 58.7891 29.2903C59.0605 29.8957 59.7704 30.1462 60.3758 29.854Z" fill="#FB93AE"/>
<path d="M52.6723 19.6456C52.1086 19.2906 51.3779 19.4368 51.023 20.0005C50.6681 20.5641 50.8142 21.2948 51.3779 21.6497C51.9416 22.0046 52.6723 21.8585 53.0272 21.2948C53.3821 20.752 53.2359 20.0005 52.6723 19.6456Z" fill="#FB93AE"/>
<path d="M18.7891 38.6012C18.121 38.6012 17.5991 39.144 17.5991 39.7912C17.5991 40.4592 18.1419 40.9812 18.7891 40.9812C19.4571 40.9812 19.9791 40.4384 19.9791 39.7912C19.9999 39.1231 19.4571 38.6012 18.7891 38.6012Z" fill="#FB93AE"/>
<path d="M28.8936 58.7476C28.4134 59.2069 28.3925 59.9584 28.8518 60.4386C29.3111 60.9188 30.0627 60.9396 30.5429 60.4804C31.023 60.0211 31.0439 59.2695 30.5846 58.7893C30.1253 58.3092 29.3529 58.2883 28.8936 58.7476Z" fill="#FB93AE"/>
<path d="M21.0645 51.2947C20.5843 51.754 20.5634 52.5056 21.0227 52.9857C21.482 53.4659 22.2336 53.4868 22.7138 53.0275C23.1939 52.5682 23.2148 51.8166 22.7555 51.3365C22.2962 50.8563 21.5447 50.8354 21.0645 51.2947Z" fill="#FB93AE"/>
<path d="M21.3572 29.4575C21.9626 29.7498 22.6724 29.4992 22.9438 28.8938C23.2152 28.2884 22.9855 27.5786 22.3801 27.3072C21.7956 27.0149 21.0649 27.2654 20.7935 27.8708C20.5221 28.4554 20.7726 29.1652 21.3572 29.4575Z" fill="#FB93AE"/>
<path d="M29.0605 19.2486C28.4968 19.6035 28.3507 20.3551 28.7056 20.8978C29.0605 21.4615 29.8121 21.6077 30.3549 21.2528C30.9186 20.8979 31.0647 20.1463 30.7098 19.6035C30.3549 19.0398 29.6242 18.8937 29.0605 19.2486Z" fill="#FB93AE"/>
<path d="M51.2737 31.2319L41.5033 37.996C41.4616 37.9751 41.4407 37.9543 41.3989 37.9334L40.3551 19.4783V37.9543C39.9584 38.1422 39.687 38.5597 39.687 39.019C39.687 39.687 40.2298 40.209 40.877 40.209C41.5451 40.209 42.067 39.6662 42.067 39.019C42.067 38.9564 42.067 38.8937 42.0461 38.852L51.2737 31.2319Z" fill="#FB93AE"/>
</svg>
