<svg width="37" height="37" viewBox="0 0 37 37" fill="none" xmlns="http://www.w3.org/2000/svg">
<g clip-path="url(#clip0)">
<path d="M33.6896 29.6594L32.196 29.1409C33.0322 28.4786 33.5699 27.4556 33.5699 26.3087V25.214C33.5699 23.2221 31.9493 21.6015 29.9575 21.6015C27.9657 21.6015 26.3451 23.2221 26.3451 25.214V26.3087C26.3451 27.4556 26.8831 28.4786 27.7192 29.1409L26.2254 29.6594C25.2673 29.9922 24.4619 30.6026 23.8852 31.3808H19.8502V29.7884C19.8502 27.6925 18.5198 25.8223 16.5398 25.1349L15.0459 24.6164C15.8821 23.9541 16.4201 22.9311 16.4201 21.7842V20.6895C16.4201 18.6974 14.7995 17.077 12.8077 17.077C10.8158 17.077 9.19524 18.6976 9.19524 20.6895V21.7842C9.19524 22.9311 9.73328 23.9541 10.5691 24.6164L9.07555 25.1349C7.09558 25.8223 5.76516 27.6925 5.76516 29.7884V31.3808H0.547356C0.245026 31.3808 0 31.6258 0 31.9282V36.4527C0 36.755 0.245026 37 0.547356 37H23.3167C23.3412 37 23.3655 36.9978 23.3895 36.9947C23.4135 36.9978 23.4378 37 23.4626 37H36.4526C36.755 37 37 36.755 37 36.4527V34.3129C37 32.2172 35.6699 30.3471 33.6896 29.6594ZM27.4398 25.214C27.4398 23.8257 28.5692 22.6962 29.9575 22.6962C31.3458 22.6962 32.4752 23.8257 32.4752 25.214V26.3087C32.4752 27.697 31.3458 28.8264 29.9575 28.8264C28.5692 28.8264 27.4398 27.697 27.4398 26.3087V25.214ZM10.2899 20.6895C10.2899 19.3012 11.4194 18.1717 12.8077 18.1717C14.196 18.1717 15.3254 19.3012 15.3254 20.6895V21.7842C15.3254 23.1725 14.196 24.3019 12.8077 24.3019C11.4194 24.3019 10.2899 23.1725 10.2899 21.7842V20.6895ZM13.956 25.3966L14.4878 25.5812L12.8077 28.4964L11.1275 25.5812L11.6593 25.3966H13.956ZM6.85987 29.7884C6.85987 28.1582 7.89474 26.7036 9.43462 26.1689L10.0748 25.9468L12.3334 29.8661C12.4311 30.0357 12.612 30.1402 12.8077 30.1402C13.0033 30.1402 13.1842 30.0357 13.2819 29.8661L15.5405 25.9468L16.1807 26.1689C17.7206 26.7036 18.7552 28.1582 18.7552 29.7884V31.3808H6.85987V29.7884ZM1.09471 32.4755H23.2718C23.0409 33.0483 22.9153 33.6699 22.9153 34.3129V35.9053H1.09471V32.4755ZM35.9053 35.9053H24.01V34.3129C24.01 32.6827 25.0446 31.2284 26.5844 30.6935L28.8091 29.9211H31.1058L33.3305 30.6935C34.8707 31.2284 35.9053 32.6827 35.9053 34.3129V35.9053Z" fill="black"/>
<path d="M33.5335 3.94073H27.9736C27.6712 3.94073 27.4262 4.18604 27.4262 4.48809C27.4262 4.79042 27.6712 5.03545 27.9736 5.03545H33.5335C34.8413 5.03545 35.9053 6.09939 35.9053 7.40751V14.9971C35.9053 16.3049 34.8413 17.3689 33.5335 17.3689H26.0168C25.7144 17.3689 25.4694 17.6139 25.4694 17.9162V20.244L22.7549 17.5292C22.6522 17.4265 22.513 17.3689 22.3679 17.3689H17.9162C16.6084 17.3689 15.5442 16.3049 15.5442 14.9971V7.40723C15.5442 6.09939 16.6081 5.03545 17.9162 5.03545H25.4146C25.717 5.03545 25.962 4.79042 25.962 4.48809C25.962 4.18576 25.717 3.94073 25.4146 3.94073H22.5503V3.46649C22.5503 1.55512 20.9951 0 19.0838 0H3.46649C1.55512 0 0 1.55512 0 3.46649V4.67666C0 4.97899 0.245026 5.22401 0.547356 5.22401C0.849686 5.22401 1.09471 4.97899 1.09471 4.67666V3.46649C1.09471 2.15865 2.15865 1.09471 3.46649 1.09471H19.0838C20.3916 1.09471 21.4556 2.15865 21.4556 3.46649V3.94073H17.9162C16.0049 3.94073 14.4497 5.49586 14.4497 7.40723V13.4279H8.72099C8.41866 13.4279 8.17364 13.6729 8.17364 13.9752V16.303L5.45916 13.5882C5.35641 13.4854 5.21724 13.4279 5.07214 13.4279H3.46649C2.15865 13.4279 1.09471 12.3639 1.09471 11.0561V7.22176C1.09471 6.91943 0.849686 6.67441 0.547356 6.67441C0.245026 6.67441 0 6.91943 0 7.22176V11.0561C0 12.9677 1.55512 14.5226 3.46649 14.5226H4.84518L8.33398 18.0114C8.43871 18.1161 8.57872 18.1717 8.72099 18.1714C8.79156 18.1714 8.8627 18.1579 8.93045 18.1299C9.13483 18.0452 9.26835 17.8457 9.26835 17.6243V14.5226H14.4497V14.9971C14.4497 16.9085 16.0049 18.4633 17.9162 18.4633H22.1412L25.6297 21.9521C25.7345 22.0568 25.8745 22.1124 26.0168 22.1124C26.0873 22.1124 26.1585 22.0989 26.2262 22.0707C26.4306 21.986 26.5641 21.7864 26.5641 21.5651V18.4633H33.5335C35.4449 18.4633 37 16.9085 37 14.9971V7.40723C37 5.49586 35.4449 3.94073 33.5335 3.94073Z" fill="black"/>
</g>
<defs>
<clipPath id="clip0">
<rect width="37" height="37" fill="white"/>
</clipPath>
</defs>
</svg>
