<svg width="24" height="25" viewBox="0 0 24 25" fill="none" xmlns="http://www.w3.org/2000/svg">
<path d="M3.29701 5.7338C3.52243 4.77279 4.27279 4.02243 5.2338 3.79701V3.79701C6.06663 3.60165 6.93337 3.60165 7.7662 3.79701V3.79701C8.72721 4.02243 9.47757 4.77279 9.70299 5.7338V5.7338C9.89835 6.56663 9.89835 7.43337 9.70299 8.2662V8.2662C9.47757 9.22721 8.72721 9.97757 7.7662 10.203V10.203C6.93337 10.3983 6.06663 10.3983 5.2338 10.203V10.203C4.27279 9.97757 3.52243 9.22721 3.29701 8.2662V8.2662C3.10166 7.43337 3.10166 6.56663 3.29701 5.7338V5.7338Z" stroke="white" stroke-width="1.5"/>
<path d="M3.29701 16.7338C3.52243 15.7728 4.27279 15.0224 5.2338 14.797V14.797C6.06663 14.6017 6.93337 14.6017 7.7662 14.797V14.797C8.72721 15.0224 9.47757 15.7728 9.70299 16.7338V16.7338C9.89835 17.5666 9.89835 18.4334 9.70299 19.2662V19.2662C9.47757 20.2272 8.72721 20.9776 7.7662 21.203V21.203C6.93337 21.3983 6.06663 21.3983 5.2338 21.203V21.203C4.27279 20.9776 3.52243 20.2272 3.29701 19.2662V19.2662C3.10166 18.4334 3.10166 17.5666 3.29701 16.7338V16.7338Z" stroke="white" stroke-width="1.5"/>
<path d="M14.297 5.7338C14.5224 4.77279 15.2728 4.02243 16.2338 3.79701V3.79701C17.0666 3.60165 17.9334 3.60165 18.7662 3.79701V3.79701C19.7272 4.02243 20.4776 4.77279 20.703 5.7338V5.7338C20.8983 6.56663 20.8983 7.43337 20.703 8.2662V8.2662C20.4776 9.22721 19.7272 9.97757 18.7662 10.203V10.203C17.9334 10.3983 17.0666 10.3983 16.2338 10.203V10.203C15.2728 9.97757 14.5224 9.22721 14.297 8.2662V8.2662C14.1017 7.43337 14.1017 6.56663 14.297 5.7338V5.7338Z" stroke="white" stroke-width="1.5"/>
<path d="M14.297 16.7338C14.5224 15.7728 15.2728 15.0224 16.2338 14.797V14.797C17.0666 14.6017 17.9334 14.6017 18.7662 14.797V14.797C19.7272 15.0224 20.4776 15.7728 20.703 16.7338V16.7338C20.8983 17.5666 20.8983 18.4334 20.703 19.2662V19.2662C20.4776 20.2272 19.7272 20.9776 18.7662 21.203V21.203C17.9334 21.3983 17.0666 21.3983 16.2338 21.203V21.203C15.2728 20.9776 14.5224 20.2272 14.297 19.2662V19.2662C14.1017 18.4334 14.1017 17.5666 14.297 16.7338V16.7338Z" stroke="white" stroke-width="1.5"/>
</svg>
