<svg width="37" height="27" viewBox="0 0 37 27" fill="none" xmlns="http://www.w3.org/2000/svg">
<path d="M30.4727 10.5061C31.9457 9.51198 32.9162 7.82769 32.9162 5.92096C32.9162 2.87229 30.4359 0.39199 27.3872 0.39199C24.3386 0.39199 21.8583 2.87229 21.8583 5.92096C21.8583 7.82682 22.8278 9.51047 24.2998 10.5048C23.2275 10.8678 22.2236 11.4206 21.3322 12.1453C20.5781 11.42 19.5659 11.0022 18.5001 11.0022C17.4343 11.0022 16.4221 11.4202 15.6684 12.1453C14.7768 11.4206 13.7727 10.8678 12.7003 10.5048C14.1722 9.5104 15.1418 7.82675 15.1418 5.92082C15.1418 2.87215 12.6615 0.391846 9.61285 0.391846C6.56454 0.391846 4.0846 2.87215 4.0846 5.92082C4.0846 7.82754 5.05491 9.51177 6.52768 10.506C2.74183 11.7924 0.00917773 15.3785 0.00101172 19.5921C0.000794922 19.5985 0 19.6046 0 19.611C0 20.7248 0.632902 22.3686 3.64826 23.8746C5.79686 24.9478 8.74949 25.7545 12.187 26.2074C14.2034 26.4733 16.3274 26.6082 18.5001 26.6082C20.6732 26.6082 22.7975 26.4734 24.8138 26.2074C28.251 25.7545 31.2034 24.9478 33.352 23.8746C36.3671 22.3685 37 20.7248 37 19.611C37 15.3893 34.2644 11.7945 30.4727 10.5061ZM23.3093 5.92096C23.3093 3.67234 25.1387 1.84301 27.3872 1.84301C29.6358 1.84301 31.4652 3.67242 31.4652 5.92096C31.4652 8.16922 29.6358 9.99819 27.3872 9.99819C25.1387 9.99819 23.3093 8.16922 23.3093 5.92096ZM16.3354 13.5867C16.8283 12.877 17.6374 12.4533 18.5 12.4533C19.3631 12.4533 20.1724 12.877 20.6653 13.5867C20.6654 13.5869 20.6655 13.587 20.6656 13.5872C20.9731 14.0294 21.1356 14.5486 21.1356 15.0889C21.1356 16.5423 19.9533 17.7246 18.4999 17.7246C17.047 17.7246 15.865 16.5422 15.865 15.0889C15.865 14.5477 16.0274 14.0287 16.3354 13.5867ZM5.53547 5.92096C5.53547 3.67234 7.36452 1.84301 9.6127 1.84301C11.8613 1.84301 13.6907 3.67242 13.6907 5.92096C13.6907 8.16922 11.8612 9.99819 9.6127 9.99819C7.36452 9.99819 5.53547 8.16922 5.53547 5.92096ZM11.5566 24.6523C8.63097 24.2068 6.13347 23.494 4.2967 22.5766C2.46693 21.6628 1.45724 20.6129 1.45138 19.6196C1.45138 19.6167 1.45182 19.6139 1.45182 19.611C1.45174 15.1106 5.11279 11.4492 9.61277 11.4492C11.5272 11.4492 13.3537 12.1106 14.8154 13.322C14.5518 13.8697 14.4141 14.4701 14.4141 15.089C14.4141 16.352 14.9901 17.4829 15.893 18.2331C13.3571 19.2642 11.5632 21.7521 11.5566 24.6523ZM23.9934 24.8465C22.2288 25.0523 20.3844 25.1573 18.5 25.1573C16.616 25.1573 14.772 25.0523 13.0073 24.8465V24.6683C13.0073 21.6396 15.4713 19.1756 18.5 19.1756C21.5291 19.1756 23.9934 21.6396 23.9934 24.6683V24.8465ZM32.7035 22.5765C30.8669 23.494 28.3697 24.2067 25.4443 24.6522C25.4377 21.752 23.6437 19.2642 21.1076 18.2331C22.0107 17.4828 22.5868 16.3519 22.5868 15.0889C22.5868 14.4707 22.4491 13.8701 22.1853 13.3219C23.6463 12.1104 25.4725 11.4491 27.3874 11.4491C31.8877 11.4491 35.549 15.1105 35.549 19.6109C35.549 20.6069 34.5385 21.6601 32.7035 22.5765Z" fill="black"/>
</svg>
