<svg width="70" height="75" viewBox="0 0 70 75" fill="none" xmlns="http://www.w3.org/2000/svg">
<path d="M17.4913 73.4304C16.9666 73.4304 16.4884 73.3623 16.0565 73.2261C15.6275 73.0928 15.2594 72.8913 14.9521 72.6217C14.6449 72.3551 14.4072 72.0217 14.2391 71.6217C14.071 71.2217 13.9869 70.7565 13.9869 70.2261C13.9869 69.7478 14.0652 69.2638 14.2217 68.7739C14.3811 68.2841 14.6159 67.787 14.926 67.2826L16.1869 68.187C16.1202 68.2942 16.0478 68.429 15.9695 68.5913C15.8913 68.7507 15.8188 68.9246 15.7521 69.113C15.6855 69.3014 15.6289 69.4957 15.5826 69.6957C15.5391 69.8928 15.5173 70.0812 15.5173 70.2609C15.5173 70.4667 15.5695 70.6536 15.6739 70.8217C15.7782 70.9899 15.9144 71.1362 16.0826 71.2609C16.2536 71.3855 16.4463 71.4841 16.6608 71.5565C16.8782 71.6319 17.0985 71.6768 17.3217 71.6913C17.5942 71.6913 17.8565 71.6493 18.1086 71.5652C18.3608 71.4841 18.584 71.3725 18.7782 71.2304C18.9753 71.0913 19.1347 70.9275 19.2565 70.7391C19.3782 70.5507 19.4463 70.3493 19.4608 70.1348C19.4521 69.958 19.4173 69.7696 19.3565 69.5696C19.2985 69.3696 19.2289 69.1696 19.1478 68.9696C19.0695 68.7696 18.984 68.5739 18.8913 68.3826C18.8014 68.1884 18.7202 68.0101 18.6478 67.8478L20.0869 67.0478C20.1043 67.0826 20.1362 67.1507 20.1826 67.2522C20.2289 67.3507 20.2797 67.4609 20.3347 67.5826C20.3898 67.7014 20.4434 67.8188 20.4956 67.9348C20.5507 68.0507 20.5942 68.142 20.626 68.2087C20.7101 68.3826 20.8144 68.5101 20.9391 68.5913C21.0637 68.6725 21.1942 68.713 21.3304 68.713H21.4695V70.4348H21.3304C21.2637 70.4348 21.2028 70.4304 21.1478 70.4217C21.0927 70.4159 21.0362 70.4043 20.9782 70.387C20.9608 70.6449 20.9144 70.8986 20.8391 71.1478C20.7637 71.4 20.6608 71.6377 20.5304 71.8609C20.3999 72.087 20.2391 72.2957 20.0478 72.487C19.8565 72.6812 19.6347 72.8478 19.3826 72.987C19.1304 73.1261 18.8463 73.2348 18.5304 73.313C18.2173 73.3913 17.871 73.4304 17.4913 73.4304ZM17.4739 68.0217L16.5086 67.0565L17.4739 66.0913L18.4391 67.0565L17.4739 68.0217ZM25.4891 70.3696C25.3877 70.4101 25.2688 70.429 25.1326 70.4261C24.9993 70.4261 24.8572 70.4101 24.7065 70.3783C24.5587 70.3464 24.4065 70.3029 24.25 70.2478C24.0964 70.1957 23.9456 70.1377 23.7978 70.0739C23.6529 70.0101 23.5166 69.9464 23.3891 69.8826C23.2645 69.8159 23.1572 69.7565 23.0674 69.7043C22.9833 69.8232 22.8848 69.9275 22.7717 70.0174C22.6587 70.1101 22.5355 70.187 22.4022 70.2478C22.2688 70.3087 22.1253 70.3551 21.9717 70.387C21.821 70.4188 21.6659 70.4348 21.5065 70.4348H21.2978V68.713H21.5065C21.6427 68.713 21.7616 68.6957 21.863 68.6609C21.9645 68.6261 22.0529 68.5768 22.1282 68.513C22.2065 68.4464 22.2761 68.3667 22.3369 68.2739C22.3978 68.1812 22.4558 68.0768 22.5109 67.9609C22.5746 67.8304 22.6427 67.6928 22.7152 67.5478C22.7906 67.4 22.8732 67.2551 22.963 67.113C23.0558 66.9681 23.1558 66.8319 23.263 66.7043C23.3703 66.5739 23.4877 66.4594 23.6152 66.3609C23.7456 66.2623 23.8877 66.1841 24.0413 66.1261C24.1949 66.0681 24.3616 66.0391 24.5413 66.0391C24.7906 66.0391 25.0166 66.0928 25.2195 66.2C25.4253 66.3043 25.6051 66.4449 25.7587 66.6217C25.9152 66.7986 26.0456 67.0029 26.15 67.2348C26.2543 67.4638 26.3311 67.7029 26.3804 67.9522C26.4297 68.2014 26.45 68.4522 26.4413 68.7043C26.4326 68.9565 26.392 69.1913 26.3195 69.4087C26.2471 69.6261 26.1413 69.8203 26.0022 69.9913C25.8659 70.1594 25.6949 70.2855 25.4891 70.3696ZM24.5022 67.5913C24.4355 67.5913 24.3703 67.6188 24.3065 67.6739C24.2456 67.7261 24.1862 67.7928 24.1282 67.8739C24.0703 67.9522 24.0166 68.0391 23.9674 68.1348C23.9181 68.2275 23.8761 68.3145 23.8413 68.3957C23.9051 68.4391 23.9848 68.4855 24.0804 68.5348C24.1761 68.5841 24.2819 68.6319 24.3978 68.6783C24.5138 68.7217 24.6369 68.7594 24.7674 68.7913C24.8978 68.8232 25.0311 68.842 25.1674 68.8478C25.2051 68.7203 25.2138 68.5841 25.1935 68.4391C25.1761 68.2913 25.1355 68.1551 25.0717 68.0304C25.0109 67.9029 24.9311 67.7986 24.8326 67.7174C24.734 67.6333 24.6239 67.5913 24.5022 67.5913ZM33.2161 73.4304C32.6915 73.4304 32.2132 73.3623 31.7813 73.2261C31.3523 73.0928 30.9842 72.8913 30.677 72.6217C30.3697 72.3551 30.1321 72.0217 29.9639 71.6217C29.7958 71.2217 29.7118 70.7565 29.7118 70.2261C29.7118 69.7478 29.79 69.2638 29.9466 68.7739C30.106 68.2841 30.3408 67.787 30.6509 67.2826L31.9118 68.187C31.8451 68.2942 31.7726 68.429 31.6944 68.5913C31.6161 68.7507 31.5437 68.9246 31.477 69.113C31.4103 69.3014 31.3538 69.4957 31.3074 69.6957C31.2639 69.8928 31.2422 70.0812 31.2422 70.2609C31.2422 70.4667 31.2944 70.6536 31.3987 70.8217C31.5031 70.9899 31.6393 71.1362 31.8074 71.2609C31.9784 71.3855 32.1712 71.4841 32.3857 71.5565C32.6031 71.6319 32.8234 71.6768 33.0466 71.6913C33.319 71.6913 33.5813 71.6493 33.8335 71.5652C34.0857 71.4841 34.3089 71.3725 34.5031 71.2304C34.7002 71.0913 34.8596 70.9275 34.9813 70.7391C35.1031 70.5507 35.1712 70.3493 35.1857 70.1348C35.177 69.958 35.1422 69.7696 35.0813 69.5696C35.0234 69.3696 34.9538 69.1696 34.8726 68.9696C34.7944 68.7696 34.7089 68.5739 34.6161 68.3826C34.5263 68.1884 34.4451 68.0101 34.3726 67.8478L35.8118 67.0478C35.8523 67.1319 35.9031 67.2435 35.9639 67.3826C36.0248 67.5217 36.0886 67.6783 36.1552 67.8522C36.2219 68.0261 36.2886 68.2116 36.3552 68.4087C36.4219 68.6058 36.4813 68.8043 36.5335 69.0043C36.5886 69.2043 36.6321 69.4 36.6639 69.5913C36.6987 69.7826 36.7161 69.9594 36.7161 70.1217C36.7161 70.3942 36.6857 70.6652 36.6248 70.9348C36.5639 71.2043 36.4697 71.4609 36.3422 71.7043C36.2176 71.9507 36.0596 72.1783 35.8683 72.387C35.677 72.5986 35.4509 72.7812 35.19 72.9348C34.9321 73.0913 34.6379 73.213 34.3074 73.3C33.9799 73.387 33.6161 73.4304 33.2161 73.4304ZM33.1726 68.0217L32.2074 67.0565L33.1726 66.0913L34.1379 67.0565L33.1726 68.0217ZM39.4732 70.4348C39.079 70.4348 38.7442 70.3812 38.4688 70.2739C38.1964 70.1696 37.9732 70.0246 37.7993 69.8391C37.6283 69.6507 37.5036 69.4304 37.4254 69.1783C37.3471 68.9232 37.308 68.6464 37.308 68.3478C37.308 67.9565 37.3109 67.5638 37.3167 67.1696C37.3225 66.7754 37.3225 66.3797 37.3167 65.9826C37.3109 65.5826 37.2949 65.1812 37.2688 64.7783C37.2456 64.3725 37.2022 63.9623 37.1384 63.5478L38.7688 63.0522C38.8442 63.4348 38.8964 63.8319 38.9254 64.2435C38.9543 64.6522 38.9703 65.0652 38.9732 65.4826C38.979 65.8971 38.9761 66.3087 38.9645 66.7174C38.9558 67.1261 38.9514 67.5188 38.9514 67.8957C38.9514 68.0261 38.9514 68.1449 38.9514 68.2522C38.9543 68.3565 38.9703 68.4449 38.9993 68.5174C39.0312 68.587 39.0833 68.6391 39.1558 68.6739C39.2283 68.7087 39.3355 68.7217 39.4775 68.713H39.5949V70.4348H39.4732ZM43.6141 70.3696C43.5127 70.4101 43.3938 70.429 43.2576 70.4261C43.1243 70.4261 42.9822 70.4101 42.8315 70.3783C42.6837 70.3464 42.5315 70.3029 42.375 70.2478C42.2214 70.1957 42.0706 70.1377 41.9228 70.0739C41.7779 70.0101 41.6416 69.9464 41.5141 69.8826C41.3895 69.8159 41.2822 69.7565 41.1924 69.7043C41.1083 69.8232 41.0098 69.9275 40.8967 70.0174C40.7837 70.1101 40.6605 70.187 40.5272 70.2478C40.3938 70.3087 40.2503 70.3551 40.0967 70.387C39.946 70.4188 39.7909 70.4348 39.6315 70.4348H39.4228V68.713H39.6315C39.7677 68.713 39.8866 68.6957 39.988 68.6609C40.0895 68.6261 40.1779 68.5768 40.2532 68.513C40.3315 68.4464 40.4011 68.3667 40.4619 68.2739C40.5228 68.1812 40.5808 68.0768 40.6359 67.9609C40.6996 67.8304 40.7677 67.6928 40.8402 67.5478C40.9156 67.4 40.9982 67.2551 41.088 67.113C41.1808 66.9681 41.2808 66.8319 41.388 66.7043C41.4953 66.5739 41.6127 66.4594 41.7402 66.3609C41.8706 66.2623 42.0127 66.1841 42.1663 66.1261C42.3199 66.0681 42.4866 66.0391 42.6663 66.0391C42.9156 66.0391 43.1416 66.0928 43.3445 66.2C43.5503 66.3043 43.7301 66.4449 43.8837 66.6217C44.0402 66.7986 44.1706 67.0029 44.275 67.2348C44.3793 67.4638 44.4561 67.7029 44.5054 67.9522C44.5547 68.2014 44.575 68.4522 44.5663 68.7043C44.5576 68.9565 44.517 69.1913 44.4445 69.4087C44.3721 69.6261 44.2663 69.8203 44.1272 69.9913C43.9909 70.1594 43.8199 70.2855 43.6141 70.3696ZM42.6272 67.5913C42.5605 67.5913 42.4953 67.6188 42.4315 67.6739C42.3706 67.7261 42.3112 67.7928 42.2532 67.8739C42.1953 67.9522 42.1416 68.0391 42.0924 68.1348C42.0431 68.2275 42.0011 68.3145 41.9663 68.3957C42.0301 68.4391 42.1098 68.4855 42.2054 68.5348C42.3011 68.5841 42.4069 68.6319 42.5228 68.6783C42.6388 68.7217 42.7619 68.7594 42.8924 68.7913C43.0228 68.8232 43.1561 68.842 43.2924 68.8478C43.3301 68.7203 43.3388 68.5841 43.3185 68.4391C43.3011 68.2913 43.2605 68.1551 43.1967 68.0304C43.1359 67.9029 43.0561 67.7986 42.9576 67.7174C42.859 67.6333 42.7489 67.5913 42.6272 67.5913ZM47.3181 66.9913C47.4515 67.3536 47.5602 67.6478 47.6442 67.8739C47.7312 68.0971 47.8065 68.271 47.8703 68.3957C47.9341 68.5203 47.9935 68.6043 48.0486 68.6478C48.1036 68.6913 48.1659 68.713 48.2355 68.713H48.3442V70.4348H48.2529C48.2007 70.4348 48.1413 70.4319 48.0746 70.4261C48.008 70.4203 47.9239 70.3971 47.8225 70.3565C47.7442 70.6841 47.6181 70.9986 47.4442 71.3C47.2732 71.6014 47.0645 71.8855 46.8181 72.1522C46.5717 72.4188 46.2935 72.6681 45.9833 72.9C45.6732 73.1319 45.3428 73.3406 44.992 73.5261L43.9399 72.1696C44.2558 71.9986 44.5558 71.8174 44.8399 71.6261C45.1239 71.4348 45.3775 71.2333 45.6007 71.0217C45.8239 70.8101 46.008 70.587 46.1529 70.3522C46.3007 70.1203 46.392 69.8754 46.4268 69.6174C46.3833 69.4667 46.3399 69.3261 46.2964 69.1957C46.2558 69.0623 46.2094 68.9246 46.1573 68.7826C46.1051 68.6377 46.0442 68.4812 45.9746 68.313C45.908 68.142 45.8268 67.9435 45.7312 67.7174L47.3181 66.9913ZM48.163 68.713H48.463C48.4833 68.5101 48.521 68.2913 48.5761 68.0565C48.6312 67.8217 48.7007 67.587 48.7848 67.3522C48.8717 67.1145 48.9746 66.887 49.0935 66.6696C49.2123 66.4493 49.3471 66.2565 49.4978 66.0913C49.6514 65.9232 49.821 65.7884 50.0065 65.687C50.192 65.5855 50.3935 65.5348 50.6109 65.5348C50.7413 65.5348 50.8688 65.5638 50.9935 65.6217C51.1181 65.6768 51.2355 65.7536 51.3457 65.8522C51.4558 65.9478 51.5558 66.0623 51.6457 66.1957C51.7384 66.3261 51.8181 66.4681 51.8848 66.6217C51.9514 66.7725 52.0036 66.9304 52.0413 67.0957C52.079 67.2609 52.0978 67.4246 52.0978 67.587C52.0978 67.8246 52.0384 68.0681 51.9196 68.3174C51.8036 68.5667 51.65 68.8058 51.4587 69.0348C51.2674 69.2609 51.0514 69.4696 50.8109 69.6609C50.5732 69.8522 50.3326 70.0087 50.0891 70.1304C50.1123 70.1739 50.1529 70.2362 50.2109 70.3174C50.2717 70.4014 50.337 70.4884 50.4065 70.5783C50.4761 70.671 50.5457 70.7594 50.6152 70.8435C50.6848 70.9275 50.7413 70.9928 50.7848 71.0391C50.7906 70.8565 50.8239 70.671 50.8848 70.4826C50.9457 70.2971 51.0268 70.1188 51.1283 69.9478C51.2297 69.7739 51.3471 69.613 51.4804 69.4652C51.6138 69.3145 51.7543 69.1841 51.9022 69.0739C52.0529 68.9609 52.2065 68.8725 52.363 68.8087C52.5196 68.7449 52.6717 68.713 52.8196 68.713H52.9891V70.4348H52.7543C52.65 70.4348 52.5486 70.4623 52.45 70.5174C52.3543 70.5754 52.2674 70.6493 52.1891 70.7391C52.1138 70.829 52.0529 70.929 52.0065 71.0391C51.963 71.1522 51.9413 71.2638 51.9413 71.3739C51.9413 71.4174 51.9457 71.4609 51.9543 71.5043C51.9659 71.5507 51.9848 71.5986 52.0109 71.6478C52.0399 71.7 52.0775 71.7565 52.1239 71.8174C52.1703 71.8812 52.2297 71.9536 52.3022 72.0348L51.3152 73.2391C50.9703 73.0681 50.6543 72.871 50.3674 72.6478C50.0804 72.4246 49.8239 72.1899 49.5978 71.9435C49.3717 71.6971 49.1775 71.4449 49.0152 71.187C48.8558 70.929 48.7312 70.6783 48.6413 70.4348H48.163V68.713ZM50.9022 67.7217C50.9225 67.6609 50.9283 67.5942 50.9196 67.5217C50.9109 67.4464 50.8906 67.3725 50.8587 67.3C50.8297 67.2246 50.792 67.1536 50.7457 67.087C50.6993 67.0174 50.6486 66.958 50.5935 66.9087C50.55 66.9522 50.5007 67.013 50.4457 67.0913C50.3906 67.1696 50.3326 67.2594 50.2717 67.3609C50.2138 67.4594 50.1543 67.5667 50.0935 67.6826C50.0355 67.7957 49.9804 67.9101 49.9283 68.0261C49.879 68.1391 49.8355 68.2507 49.7978 68.3609C49.7601 68.471 49.7341 68.5725 49.7196 68.6652C49.8442 68.6246 49.9703 68.5696 50.0978 68.5C50.2254 68.4275 50.3428 68.3493 50.45 68.2652C50.5601 68.1783 50.6543 68.0884 50.7326 67.9957C50.8138 67.9 50.8703 67.8087 50.9022 67.7217ZM52.9637 68.713C53.0129 68.713 53.0926 68.713 53.2028 68.713C53.3158 68.713 53.4434 68.7116 53.5854 68.7087C53.7303 68.7058 53.8839 68.7029 54.0463 68.7C54.2115 68.6942 54.3709 68.6884 54.5245 68.6826C54.6781 68.6739 54.8202 68.6638 54.9506 68.6522C55.081 68.6377 55.1868 68.6217 55.268 68.6043C54.9405 68.5957 54.6361 68.5667 54.355 68.5174C54.0767 68.4652 53.8361 68.3797 53.6332 68.2609C53.4303 68.142 53.2709 67.9855 53.155 67.7913C53.0419 67.5942 52.9854 67.3478 52.9854 67.0522C52.9854 66.8812 53.0028 66.7058 53.0376 66.5261C53.0724 66.3464 53.1245 66.1725 53.1941 66.0043C53.2637 65.8333 53.3492 65.6725 53.4506 65.5217C53.5521 65.371 53.668 65.2391 53.7984 65.1261C53.9289 65.013 54.0738 64.9232 54.2332 64.8565C54.3955 64.7899 54.5709 64.7565 54.7593 64.7565C54.9854 64.7565 55.1941 64.8014 55.3854 64.8913C55.5796 64.9783 55.755 65.0986 55.9115 65.2522C56.0709 65.4029 56.2115 65.5783 56.3332 65.7783C56.455 65.9783 56.5564 66.1913 56.6376 66.4174C56.7216 66.6406 56.7854 66.871 56.8289 67.1087C56.8724 67.3435 56.8941 67.571 56.8941 67.7913C56.8941 68.2 56.8463 68.5493 56.7506 68.8391C56.655 69.1261 56.5187 69.3681 56.3419 69.5652C56.168 69.7594 55.9593 69.9145 55.7158 70.0304C55.4752 70.1464 55.2086 70.2333 54.9158 70.2913C54.626 70.3522 54.3158 70.3913 53.9854 70.4087C53.655 70.4261 53.3158 70.4348 52.968 70.4348H52.8115V68.713H52.9637ZM54.7419 66.213C54.6492 66.2043 54.5666 66.2217 54.4941 66.2652C54.4216 66.3058 54.3593 66.3609 54.3071 66.4304C54.2579 66.4971 54.2202 66.571 54.1941 66.6522C54.168 66.7333 54.155 66.8087 54.155 66.8783C54.155 66.9101 54.1796 66.9435 54.2289 66.9783C54.2781 67.0101 54.3419 67.0406 54.4202 67.0696C54.5013 67.0986 54.5912 67.1261 54.6897 67.1522C54.7912 67.1754 54.8912 67.1942 54.9897 67.2087C55.0883 67.2203 55.1825 67.2261 55.2724 67.2261C55.3622 67.2261 55.4361 67.2174 55.4941 67.2C55.468 67.0986 55.4289 66.9913 55.3767 66.8783C55.3274 66.7652 55.2695 66.6609 55.2028 66.5652C55.1361 66.4696 55.0622 66.3884 54.981 66.3217C54.9028 66.2551 54.8231 66.2188 54.7419 66.213ZM54.7332 63.587L53.9158 64.4043L53.0724 63.5652L53.9071 62.7261L54.7332 63.5522L55.5506 62.7348L56.3941 63.5739L55.5593 64.413L54.7332 63.587Z" fill="white"/>
<g clip-path="url(#clip0)">
<path d="M69.2349 28.2425L35.602 11.7604C35.2223 11.5745 34.7779 11.5745 34.3982 11.7604L0.765288 28.2425C0.288907 28.4764 -0.00963179 28.9645 -1.87279e-05 29.4959C0.0101284 30.0268 0.326292 30.5037 0.811217 30.7195L17.2266 38.0222V48.3947C17.2266 49.0436 17.6821 49.6027 18.3177 49.7336C27.841 51.6957 31.8833 53.7919 33.7659 57.7434C33.9923 58.2198 34.473 58.5226 35.0001 58.5226H35.0102C35.5411 58.5183 36.0217 58.2075 36.2428 57.7247C38.0351 53.8116 43.0703 51.2006 51.6355 49.7426C52.2929 49.631 52.7736 49.0612 52.7736 48.3947V38.0227L58.4971 35.4763L60.1591 40.5467C58.6728 41.2196 57.6357 42.7144 57.6357 44.448C57.6357 45.2913 57.8819 46.0774 58.3048 46.7407L56.6001 49.2737C56.1793 49.8997 56.3459 50.7499 56.9718 51.1713C57.5865 51.5846 58.4586 51.4084 58.8699 50.7996L60.3748 48.5618C60.3748 48.5618 60.0063 51.2247 60.0047 51.238C59.9091 51.9286 60.472 52.6837 61.1722 52.7793C61.8878 52.8765 62.6099 52.3579 62.7129 51.6129L63.1231 48.6457C63.1231 48.6457 64.0027 50.9464 64.0048 50.9523C64.2644 51.6316 65.0927 52.0001 65.7699 51.7416C66.4311 51.4885 66.8177 50.657 66.5587 49.9766L65.3998 46.9436C65.9066 46.2403 66.2062 45.3789 66.2062 44.448C66.2062 42.4426 64.8193 40.7555 62.9527 40.2925L61.0088 34.3585L69.1884 30.7195C69.6739 30.5037 69.99 30.0268 69.9997 29.4954C70.0098 28.9645 69.7113 28.4764 69.2349 28.2425ZM50.0392 47.2507C46.007 48.0096 42.784 49.0259 40.2125 50.3461C37.9849 51.4896 36.2412 52.8867 35.0028 54.515C32.1482 50.6794 27.167 48.8401 19.961 47.2854V40.802C19.961 39.736 21.4692 38.4836 23.8975 37.5325C26.8413 36.38 30.7842 35.745 35.0001 35.745C39.2159 35.745 43.1589 36.38 46.1026 37.5325C48.5305 38.4831 50.0392 39.736 50.0392 40.802V47.2507ZM50.0392 36.5049C49.2274 35.9447 48.2442 35.4347 47.0997 34.9866C43.8457 33.7123 39.5487 33.0106 35.0001 33.0106C30.4515 33.0106 26.1545 33.7123 22.9004 34.9866C21.756 35.4347 20.7727 35.9447 19.961 36.5049V33.5019C19.961 32.4359 21.4692 31.183 23.8975 30.2319C26.8413 29.0794 30.7842 28.4444 35.0001 28.4444C39.2159 28.4444 43.1589 29.0794 46.1026 30.2319C48.5305 31.183 50.0392 32.4359 50.0392 33.5019V36.5049ZM61.9161 42.9008C61.9177 42.9008 61.9193 42.9014 61.9204 42.9014C61.922 42.9014 61.9236 42.9008 61.9252 42.9008C62.7781 42.9035 63.4718 43.5962 63.4718 44.4475C63.4718 45.2357 62.7343 45.9946 61.9209 45.9952C61.1177 45.9952 60.37 45.2768 60.37 44.448C60.37 43.5962 61.0632 42.9035 61.9161 42.9008ZM52.7736 35.0299V33.5019C52.7736 31.1841 50.7586 29.1184 47.0997 27.686C43.8457 26.4117 39.5487 25.71 35.0001 25.71C30.4515 25.71 26.1545 26.4117 22.9004 27.686C19.2416 29.1189 17.2266 31.1841 17.2266 33.5019V35.0299L4.59609 29.4105L35.0001 14.5108L65.4041 29.4105L52.7736 35.0299Z" fill="white"/>
<path d="M56.0547 54.5631C56.0547 55.3182 55.4427 55.9303 54.6875 55.9303C53.9323 55.9303 53.3203 55.3182 53.3203 54.5631C53.3203 53.8085 53.9323 53.1959 54.6875 53.1959C55.4427 53.1959 56.0547 53.8085 56.0547 54.5631Z" fill="white"/>
<path d="M61.9338 56.8874C61.9338 57.6425 61.3218 58.2546 60.5667 58.2546C59.8115 58.2546 59.1995 57.6425 59.1995 56.8874C59.1995 56.1327 59.8115 55.5202 60.5667 55.5202C61.3218 55.5202 61.9338 56.1327 61.9338 56.8874Z" fill="white"/>
<path d="M68.6331 55.5201C68.6331 56.2753 68.021 56.8873 67.2659 56.8873C66.5107 56.8873 65.8987 56.2753 65.8987 55.5201C65.8987 54.7655 66.5107 54.153 67.2659 54.153C68.021 54.153 68.6331 54.7655 68.6331 55.5201Z" fill="white"/>
</g>
<defs>
<clipPath id="clip0">
<rect width="70" height="70" fill="white"/>
</clipPath>
</defs>
</svg>
