<svg width="70" height="75" viewBox="0 0 70 75" fill="none" xmlns="http://www.w3.org/2000/svg">
<path d="M17.8348 72.8174C17.4174 72.8058 17.042 72.7406 16.7087 72.6217C16.3754 72.5029 16.0913 72.3348 15.8565 72.1174C15.6246 71.9 15.4464 71.6319 15.3217 71.313C15.2 70.9971 15.1391 70.6348 15.1391 70.2261C15.1391 70.0174 15.1565 69.8058 15.1913 69.5913C15.2261 69.3739 15.2725 69.1623 15.3304 68.9565C15.3913 68.7507 15.4594 68.5551 15.5348 68.3696C15.613 68.1812 15.6957 68.0116 15.7826 67.8609L16.2 68.1652C16.1449 68.258 16.0855 68.3797 16.0217 68.5304C15.958 68.6783 15.8986 68.8449 15.8435 69.0304C15.7913 69.213 15.7464 69.4101 15.7087 69.6217C15.6739 69.8304 15.6565 70.0406 15.6565 70.2522C15.6565 70.3913 15.6696 70.5362 15.6957 70.687C15.7217 70.8377 15.7667 70.987 15.8304 71.1348C15.8942 71.2826 15.9783 71.4232 16.0826 71.5565C16.1899 71.6928 16.3246 71.813 16.487 71.9174C16.6493 72.0217 16.842 72.1072 17.0652 72.1739C17.2884 72.2435 17.5478 72.2855 17.8435 72.3C18.2348 72.3 18.5884 72.2449 18.9043 72.1348C19.2203 72.0246 19.4884 71.8667 19.7087 71.6609C19.9319 71.458 20.1029 71.2145 20.2217 70.9304C20.3435 70.6464 20.4043 70.3304 20.4043 69.9826C20.4043 69.742 20.3812 69.5101 20.3348 69.287C20.2913 69.0609 20.2362 68.8522 20.1696 68.6609C20.1058 68.4667 20.0377 68.2942 19.9652 68.1435C19.8928 67.9928 19.829 67.8696 19.7739 67.7739C19.8609 67.7188 19.9377 67.6681 20.0043 67.6217C20.0739 67.5754 20.1478 67.5275 20.2261 67.4783C20.2667 67.5449 20.3145 67.6348 20.3696 67.7478C20.4275 67.858 20.4855 67.987 20.5435 68.1348C20.6594 68.3899 20.7783 68.5957 20.9 68.7522C21.0217 68.9058 21.142 69.0261 21.2609 69.113C21.3826 69.1971 21.4986 69.2536 21.6087 69.2826C21.7217 69.3087 21.829 69.3217 21.9304 69.3217V69.8261C21.7478 69.8261 21.5638 69.7913 21.3783 69.7217C21.1928 69.6522 21.0246 69.5275 20.8739 69.3478C20.8884 69.4493 20.9 69.5507 20.9087 69.6522C20.9174 69.7536 20.9217 69.8565 20.9217 69.9609C20.9217 70.4072 20.8435 70.8101 20.687 71.1696C20.5333 71.529 20.3188 71.8319 20.0435 72.0783C19.771 72.3275 19.4551 72.513 19.0957 72.6348C18.7391 72.7594 18.3638 72.8217 17.9696 72.8217C17.9261 72.8217 17.8812 72.8203 17.8348 72.8174ZM17.987 67.7696L17.4043 67.187L17.9826 66.6087L18.5652 67.1913L17.987 67.7696ZM21.8447 69.3217H21.9882C22.2548 69.3217 22.478 69.2797 22.6577 69.1957C22.8403 69.1087 22.9954 68.9957 23.1229 68.8565C23.2534 68.7145 23.3664 68.5536 23.4621 68.3739C23.5577 68.1913 23.6534 68.0043 23.749 67.813C23.8244 67.6623 23.8983 67.5174 23.9708 67.3783C24.0461 67.2362 24.1258 67.113 24.2099 67.0087C24.3258 66.8754 24.4519 66.7725 24.5882 66.7C24.7244 66.6275 24.8708 66.5913 25.0273 66.5913C25.2186 66.5913 25.394 66.6319 25.5534 66.713C25.7128 66.7942 25.8577 66.9087 25.9882 67.0565C26.049 67.1348 26.1041 67.2246 26.1534 67.3261C26.2027 67.4246 26.2447 67.529 26.2795 67.6391C26.3142 67.7493 26.3403 67.8638 26.3577 67.9826C26.378 68.0986 26.3882 68.2145 26.3882 68.3304C26.3882 68.5971 26.3447 68.8406 26.2577 69.0609L26.2621 69.0565C26.1606 69.2884 26.0258 69.4681 25.8577 69.5957C25.6925 69.7203 25.4911 69.7826 25.2534 69.7826C25.0592 69.7826 24.8302 69.7319 24.5664 69.6304C24.4273 69.5754 24.278 69.5029 24.1186 69.413C23.9621 69.3203 23.7911 69.2043 23.6056 69.0652C23.4954 69.213 23.378 69.3362 23.2534 69.4348C23.1287 69.5333 22.9983 69.6116 22.8621 69.6696C22.7287 69.7275 22.5882 69.7681 22.4403 69.7913C22.2954 69.8145 22.1476 69.8261 21.9969 69.8261H21.8447V69.3217ZM23.8969 68.6391C24.036 68.7406 24.1751 68.8319 24.3142 68.913C24.4563 68.9913 24.5925 69.058 24.7229 69.113C24.8534 69.1652 24.9737 69.2058 25.0838 69.2348C25.1969 69.2638 25.294 69.2783 25.3751 69.2783C25.407 69.2783 25.4389 69.2768 25.4708 69.2739C25.5056 69.271 25.5389 69.2638 25.5708 69.2522C25.6316 69.229 25.6853 69.1899 25.7316 69.1348C25.7809 69.0797 25.8215 69.0145 25.8534 68.9391C25.8853 68.8609 25.9099 68.7754 25.9273 68.6826C25.9447 68.5899 25.9534 68.4928 25.9534 68.3913C25.9534 68.2493 25.9345 68.1058 25.8969 67.9609C25.8621 67.8159 25.807 67.6826 25.7316 67.5609C25.6563 67.4391 25.5606 67.3377 25.4447 67.2565C25.3287 67.1725 25.1925 67.1217 25.036 67.1043C24.9577 67.1043 24.8838 67.1246 24.8142 67.1652C24.7476 67.2058 24.6809 67.2652 24.6142 67.3435C24.5476 67.4217 24.4809 67.5188 24.4142 67.6348C24.3476 67.7507 24.2766 67.8841 24.2012 68.0348L23.8969 68.6391ZM33.3621 72.8174C32.9447 72.8058 32.5694 72.7406 32.236 72.6217C31.9027 72.5029 31.6186 72.3348 31.3839 72.1174C31.152 71.9 30.9737 71.6319 30.8491 71.313C30.7273 70.9971 30.6665 70.6348 30.6665 70.2261C30.6665 70.0174 30.6839 69.8058 30.7186 69.5913C30.7534 69.3739 30.7998 69.1623 30.8578 68.9565C30.9186 68.7507 30.9868 68.5551 31.0621 68.3696C31.1404 68.1812 31.223 68.0116 31.31 67.8609L31.7273 68.1652C31.6723 68.258 31.6129 68.3797 31.5491 68.5304C31.4853 68.6783 31.4259 68.8449 31.3708 69.0304C31.3186 69.213 31.2737 69.4101 31.236 69.6217C31.2013 69.8304 31.1839 70.0406 31.1839 70.2522C31.1839 70.3913 31.1969 70.5362 31.223 70.687C31.2491 70.8377 31.294 70.987 31.3578 71.1348C31.4215 71.2826 31.5056 71.4232 31.61 71.5565C31.7172 71.6928 31.852 71.813 32.0143 71.9174C32.1766 72.0217 32.3694 72.1072 32.5926 72.1739C32.8157 72.2435 33.0752 72.2855 33.3708 72.3C33.7621 72.3 34.1157 72.2449 34.4317 72.1348C34.7476 72.0246 35.0157 71.8667 35.236 71.6609C35.4592 71.458 35.6302 71.2145 35.7491 70.9304C35.8708 70.6464 35.9317 70.3304 35.9317 69.9826C35.9317 69.742 35.9085 69.5101 35.8621 69.287C35.8186 69.0609 35.7636 68.8522 35.6969 68.6609C35.6331 68.4667 35.565 68.2942 35.4926 68.1435C35.4201 67.9928 35.3563 67.8696 35.3013 67.7739C35.3882 67.7188 35.465 67.6681 35.5317 67.6217C35.6013 67.5754 35.6752 67.5275 35.7534 67.4783C35.8027 67.5623 35.8665 67.6855 35.9447 67.8478C36.0259 68.0072 36.1027 68.1957 36.1752 68.413C36.2505 68.6304 36.3143 68.871 36.3665 69.1348C36.4215 69.3957 36.4491 69.671 36.4491 69.9609C36.4491 70.4072 36.3708 70.8101 36.2143 71.1696C36.0607 71.529 35.8462 71.8319 35.5708 72.0783C35.2984 72.3275 34.9824 72.513 34.623 72.6348C34.2665 72.7594 33.8911 72.8217 33.4969 72.8217C33.4534 72.8217 33.4085 72.8203 33.3621 72.8174ZM33.5404 67.7696L32.9578 67.187L33.536 66.6087L34.1186 67.1913L33.5404 67.7696ZM39.8302 69.8261C39.5317 69.8261 39.281 69.7928 39.0781 69.7261C38.8752 69.6594 38.7041 69.5565 38.565 69.4174C38.481 69.3362 38.4157 69.2464 38.3694 69.1478C38.3259 69.0493 38.294 68.9493 38.2737 68.8478C38.2563 68.7435 38.2462 68.642 38.2433 68.5435C38.2404 68.4449 38.2389 68.3551 38.2389 68.2739C38.2447 68.071 38.2476 67.871 38.2476 67.6739C38.2505 67.4768 38.252 67.3087 38.252 67.1696C38.252 67.0333 38.2505 66.8565 38.2476 66.6391C38.2476 66.4188 38.2447 66.1565 38.2389 65.8522C38.2331 65.5449 38.2244 65.2478 38.2128 64.9609C38.2041 64.671 38.1911 64.3986 38.1737 64.1435C38.1592 63.8855 38.1418 63.6594 38.1215 63.4652L38.6259 63.3696C38.652 63.5638 38.6737 63.7884 38.6911 64.0435C38.7085 64.2957 38.7215 64.5652 38.7302 64.8522C38.7418 65.1391 38.7505 65.4377 38.7563 65.7478C38.7621 66.0551 38.765 66.3609 38.765 66.6652C38.765 66.9696 38.7636 67.2667 38.7607 67.5565C38.7607 67.8435 38.7592 68.1101 38.7563 68.3565C38.7563 68.4319 38.7563 68.5029 38.7563 68.5696C38.7592 68.6333 38.7665 68.6942 38.7781 68.7522C38.7897 68.8101 38.807 68.8652 38.8302 68.9174C38.8563 68.9667 38.8925 69.013 38.9389 69.0565C39.0172 69.1348 39.1273 69.1986 39.2694 69.2478C39.4143 69.2971 39.5911 69.3217 39.7998 69.3217H39.9172V69.8261H39.8302ZM39.7451 69.3217H39.8886C40.1552 69.3217 40.3784 69.2797 40.5581 69.1957C40.7407 69.1087 40.8958 68.9957 41.0233 68.8565C41.1538 68.7145 41.2668 68.5536 41.3625 68.3739C41.4581 68.1913 41.5538 68.0043 41.6494 67.813C41.7248 67.6623 41.7987 67.5174 41.8712 67.3783C41.9465 67.2362 42.0262 67.113 42.1103 67.0087C42.2262 66.8754 42.3523 66.7725 42.4886 66.7C42.6248 66.6275 42.7712 66.5913 42.9277 66.5913C43.119 66.5913 43.2944 66.6319 43.4538 66.713C43.6132 66.7942 43.7581 66.9087 43.8886 67.0565C43.9494 67.1348 44.0045 67.2246 44.0538 67.3261C44.103 67.4246 44.1451 67.529 44.1799 67.6391C44.2146 67.7493 44.2407 67.8638 44.2581 67.9826C44.2784 68.0986 44.2886 68.2145 44.2886 68.3304C44.2886 68.5971 44.2451 68.8406 44.1581 69.0609L44.1625 69.0565C44.061 69.2884 43.9262 69.4681 43.7581 69.5957C43.5929 69.7203 43.3915 69.7826 43.1538 69.7826C42.9596 69.7826 42.7306 69.7319 42.4668 69.6304C42.3277 69.5754 42.1784 69.5029 42.019 69.413C41.8625 69.3203 41.6915 69.2043 41.5059 69.0652C41.3958 69.213 41.2784 69.3362 41.1538 69.4348C41.0291 69.5333 40.8987 69.6116 40.7625 69.6696C40.6291 69.7275 40.4886 69.7681 40.3407 69.7913C40.1958 69.8145 40.048 69.8261 39.8972 69.8261H39.7451V69.3217ZM41.7972 68.6391C41.9364 68.7406 42.0755 68.8319 42.2146 68.913C42.3567 68.9913 42.4929 69.058 42.6233 69.113C42.7538 69.1652 42.8741 69.2058 42.9842 69.2348C43.0972 69.2638 43.1944 69.2783 43.2755 69.2783C43.3074 69.2783 43.3393 69.2768 43.3712 69.2739C43.4059 69.271 43.4393 69.2638 43.4712 69.2522C43.532 69.229 43.5857 69.1899 43.632 69.1348C43.6813 69.0797 43.7219 69.0145 43.7538 68.9391C43.7857 68.8609 43.8103 68.7754 43.8277 68.6826C43.8451 68.5899 43.8538 68.4928 43.8538 68.3913C43.8538 68.2493 43.8349 68.1058 43.7972 67.9609C43.7625 67.8159 43.7074 67.6826 43.632 67.5609C43.5567 67.4391 43.461 67.3377 43.3451 67.2565C43.2291 67.1725 43.0929 67.1217 42.9364 67.1043C42.8581 67.1043 42.7842 67.1246 42.7146 67.1652C42.648 67.2058 42.5813 67.2652 42.5146 67.3435C42.448 67.4217 42.3813 67.5188 42.3146 67.6348C42.248 67.7507 42.177 67.8841 42.1016 68.0348L41.7972 68.6391ZM47.4439 69.7C47.4439 70.0449 47.37 70.3754 47.2221 70.6913C47.0772 71.0101 46.883 71.3072 46.6395 71.5826C46.396 71.8609 46.1163 72.1159 45.8004 72.3478C45.4873 72.5826 45.1627 72.7899 44.8265 72.9696C44.7859 72.8855 44.7468 72.8072 44.7091 72.7348C44.6685 72.6623 44.6308 72.5899 44.596 72.5174C44.8946 72.358 45.1844 72.1768 45.4656 71.9739C45.7468 71.771 45.996 71.5493 46.2134 71.3087C46.4308 71.071 46.6047 70.8159 46.7352 70.5435C46.8685 70.2739 46.9352 69.9913 46.9352 69.6957C46.9352 69.5449 46.9192 69.3826 46.8873 69.2087C46.8584 69.0319 46.8207 68.8536 46.7743 68.6739C46.7279 68.4942 46.6772 68.3159 46.6221 68.1391C46.5671 67.9623 46.5163 67.7971 46.47 67.6435L46.9526 67.4913C47.0627 67.813 47.1729 68.0899 47.283 68.3217C47.3931 68.5507 47.5076 68.7391 47.6265 68.887C47.7453 69.0348 47.8714 69.1449 48.0047 69.2174C48.141 69.287 48.2888 69.3217 48.4482 69.3217H48.5352V69.8261H48.4482C48.4134 69.8261 48.354 69.8246 48.27 69.8217C48.1888 69.8159 48.0975 69.7986 47.996 69.7696C47.8975 69.7377 47.796 69.6913 47.6917 69.6304C47.5902 69.5667 47.4989 69.4754 47.4178 69.3565L47.4439 69.7ZM48.3584 69.3217H49.2453C49.2424 69.2812 49.241 69.2377 49.241 69.1913C49.241 69.0609 49.2526 68.9029 49.2757 68.7174C49.2989 68.5319 49.3395 68.3275 49.3975 68.1043C49.4584 67.8812 49.5337 67.6609 49.6236 67.4435C49.7163 67.2261 49.8221 67.029 49.941 66.8522C50.0598 66.6754 50.1917 66.529 50.3366 66.413C50.4844 66.2942 50.6439 66.2232 50.8149 66.2C50.9714 66.2 51.112 66.2551 51.2366 66.3652C51.3613 66.4754 51.4656 66.6159 51.5497 66.787C51.6366 66.958 51.7018 67.1464 51.7453 67.3522C51.7917 67.558 51.8149 67.7551 51.8149 67.9435C51.8149 68.2101 51.7627 68.4507 51.6584 68.6652C51.5569 68.8797 51.4178 69.0667 51.241 69.2261C51.0671 69.3826 50.8613 69.5101 50.6236 69.6087C50.3888 69.7043 50.1381 69.7667 49.8714 69.7957C49.9033 69.9261 49.9511 70.0739 50.0149 70.2391C50.0815 70.4043 50.1627 70.571 50.2584 70.7391C50.354 70.9072 50.4627 71.0681 50.5844 71.2217C50.7062 71.3754 50.841 71.5058 50.9888 71.613C50.983 71.5522 50.9786 71.5043 50.9757 71.4696C50.9728 71.4348 50.97 71.4058 50.9671 71.3826C50.9671 71.3623 50.9671 71.3478 50.9671 71.3391C50.9671 71.3304 50.9671 71.3217 50.9671 71.313C50.9671 71.142 50.9931 70.9739 51.0453 70.8087C51.0975 70.6435 51.1685 70.487 51.2584 70.3391C51.3482 70.1913 51.454 70.0565 51.5757 69.9348C51.7004 69.8101 51.8323 69.7029 51.9714 69.613C52.1134 69.5203 52.2598 69.4493 52.4105 69.4C52.5642 69.3478 52.7163 69.3217 52.8671 69.3217H53.0323V69.8261H52.854C52.6685 69.8261 52.4931 69.871 52.3279 69.9609C52.1656 70.0507 52.0236 70.1681 51.9018 70.313C51.7801 70.4609 51.6844 70.6261 51.6149 70.8087C51.5453 70.9942 51.5105 71.1826 51.5105 71.3739C51.5105 71.5217 51.5337 71.6638 51.5801 71.8C51.6294 71.9391 51.7062 72.0739 51.8105 72.2043L51.454 72.6304C50.9004 72.2681 50.4497 71.8522 50.1018 71.3826C49.754 70.9159 49.5018 70.3971 49.3453 69.8261H48.3584V69.3217ZM50.8627 66.7261C50.7584 66.7435 50.654 66.7986 50.5497 66.8913C50.4453 66.9841 50.3468 67.1014 50.254 67.2435C50.1642 67.3855 50.0815 67.5449 50.0062 67.7217C49.9337 67.8986 49.8728 68.0783 49.8236 68.2609C49.7772 68.4435 49.7482 68.5957 49.7366 68.7174C49.725 68.8391 49.7192 68.9319 49.7192 68.9957C49.7192 69.0971 49.7279 69.1913 49.7453 69.2783C49.7772 69.2812 49.8091 69.2826 49.841 69.2826C50.0178 69.2826 50.1975 69.2522 50.3801 69.1913C50.5627 69.1304 50.7279 69.0348 50.8757 68.9043C51.0265 68.7739 51.1424 68.6174 51.2236 68.4348C51.3076 68.2493 51.3497 68.0478 51.3497 67.8304V67.7652C51.3468 67.6696 51.3395 67.5696 51.3279 67.4652C51.3163 67.358 51.2931 67.2565 51.2584 67.1609C51.2236 67.0623 51.1743 66.9754 51.1105 66.9C51.0497 66.8217 50.9671 66.7638 50.8627 66.7261ZM52.9473 69.3217C53.3618 69.3217 53.7386 69.3029 54.0777 69.2652C54.4197 69.2275 54.7183 69.1681 54.9734 69.087C55.2284 69.0029 55.4371 68.8971 55.5994 68.7696C55.7647 68.6391 55.8791 68.4812 55.9429 68.2957C55.7806 68.3101 55.6473 68.3217 55.5429 68.3304C55.4415 68.3362 55.3487 68.3391 55.2647 68.3391C54.9951 68.3391 54.7545 68.3174 54.5429 68.2739C54.3313 68.2275 54.1516 68.1551 54.0038 68.0565C53.856 67.9551 53.7429 67.8261 53.6647 67.6696C53.5864 67.513 53.5473 67.3217 53.5473 67.0957C53.5473 66.9884 53.5589 66.8696 53.582 66.7391C53.6081 66.6087 53.6458 66.4768 53.6951 66.3435C53.7444 66.2072 53.8038 66.0768 53.8734 65.9522C53.9458 65.8246 54.0284 65.7116 54.1212 65.613C54.2139 65.5116 54.3168 65.4319 54.4299 65.3739C54.5458 65.313 54.6719 65.2826 54.8081 65.2826C54.982 65.2826 55.1429 65.3217 55.2907 65.4C55.4386 65.4754 55.5719 65.5768 55.6907 65.7043C55.8125 65.8319 55.9183 65.9797 56.0081 66.1478C56.1009 66.3159 56.1777 66.4928 56.2386 66.6783C56.2994 66.8638 56.3458 67.0522 56.3777 67.2435C56.4096 67.4319 56.4255 67.6101 56.4255 67.7783C56.4255 68.071 56.382 68.3261 56.2951 68.5435C56.2081 68.758 56.0864 68.942 55.9299 69.0957C55.7734 69.2464 55.5878 69.3696 55.3734 69.4652C55.1589 69.5609 54.9255 69.6362 54.6734 69.6913C54.4212 69.7435 54.1531 69.7797 53.869 69.8C53.5878 69.8174 53.3009 69.8261 53.0081 69.8261H52.9473V69.3217ZM54.8081 65.7957C54.6864 65.7986 54.5719 65.8449 54.4647 65.9348C54.3603 66.0217 54.269 66.129 54.1907 66.2565C54.1125 66.3812 54.0502 66.5145 54.0038 66.6565C53.9603 66.7986 53.9386 66.9246 53.9386 67.0348C53.9386 67.1594 53.9589 67.2652 53.9994 67.3522C54.0429 67.4391 54.0994 67.5116 54.169 67.5696C54.2415 67.6246 54.3255 67.6681 54.4212 67.7C54.5197 67.7319 54.6226 67.7551 54.7299 67.7696C54.8371 67.7841 54.9473 67.7928 55.0603 67.7957C55.1734 67.7986 55.2835 67.8 55.3907 67.8C55.4487 67.8 55.5197 67.8 55.6038 67.8C55.6907 67.7971 55.8067 67.7884 55.9516 67.7739C55.9487 67.6638 55.9342 67.5391 55.9081 67.4C55.882 67.258 55.8444 67.1145 55.7951 66.9696C55.7458 66.8217 55.6864 66.6783 55.6168 66.5391C55.5502 66.3971 55.4748 66.271 55.3907 66.1609C55.3067 66.0507 55.2154 65.9623 55.1168 65.8957C55.0183 65.829 54.9154 65.7957 54.8081 65.7957ZM54.0647 64.4696L53.482 63.8913L54.056 63.313L54.6386 63.8957L54.0647 64.4696ZM55.6125 64.4783L55.0299 63.8957L55.6038 63.3217L56.182 63.9043L55.6125 64.4783Z" fill="#4BBCAF"/>
<g clip-path="url(#clip0)">
<path d="M69.2349 28.2426L35.602 11.7605C35.2223 11.5746 34.7779 11.5746 34.3982 11.7605L0.765288 28.2426C0.288907 28.4765 -0.00963179 28.9647 -1.87279e-05 29.4961C0.0101284 30.0269 0.326292 30.5038 0.811217 30.7196L17.2266 38.0223V48.3948C17.2266 49.0437 17.6821 49.6028 18.3177 49.7337C27.841 51.6958 31.8833 53.792 33.7659 57.7435C33.9923 58.2199 34.473 58.5227 35.0001 58.5227H35.0102C35.5411 58.5184 36.0217 58.2076 36.2428 57.7248C38.0351 53.8118 43.0703 51.2008 51.6355 49.7428C52.2929 49.6312 52.7736 49.0613 52.7736 48.3948V38.0228L58.4971 35.4764L60.1591 40.5468C58.6728 41.2197 57.6357 42.7146 57.6357 44.4481C57.6357 45.2914 57.8819 46.0775 58.3048 46.7408L56.6001 49.2739C56.1793 49.8998 56.3459 50.75 56.9718 51.1714C57.5865 51.5847 58.4586 51.4085 58.8699 50.7997L60.3748 48.562C60.3748 48.562 60.0063 51.2248 60.0047 51.2381C59.9091 51.9287 60.472 52.6838 61.1722 52.7794C61.8878 52.8766 62.6099 52.3581 62.7129 51.613L63.1231 48.6458C63.1231 48.6458 64.0027 50.9465 64.0048 50.9524C64.2644 51.6317 65.0927 52.0002 65.7699 51.7418C66.4311 51.4886 66.8177 50.6571 66.5587 49.9767L65.3998 46.9438C65.9066 46.2404 66.2062 45.379 66.2062 44.4481C66.2062 42.4427 64.8193 40.7556 62.9527 40.2926L61.0088 34.3587L69.1884 30.7196C69.6739 30.5038 69.99 30.0269 69.9997 29.4955C70.0098 28.9647 69.7113 28.4765 69.2349 28.2426ZM50.0392 47.2509C46.007 48.0098 42.784 49.0261 40.2125 50.3463C37.9849 51.4897 36.2412 52.8868 35.0028 54.5151C32.1482 50.6795 27.167 48.8402 19.961 47.2856V40.8021C19.961 39.7361 21.4692 38.4837 23.8975 37.5326C26.8413 36.3801 30.7842 35.7451 35.0001 35.7451C39.2159 35.7451 43.1589 36.3801 46.1026 37.5326C48.5305 38.4832 50.0392 39.7361 50.0392 40.8021V47.2509ZM50.0392 36.505C49.2274 35.9448 48.2442 35.4348 47.0997 34.9867C43.8457 33.7125 39.5487 33.0107 35.0001 33.0107C30.4515 33.0107 26.1545 33.7125 22.9004 34.9867C21.756 35.4348 20.7727 35.9448 19.961 36.505V33.502C19.961 32.4361 21.4692 31.1831 23.8975 30.232C26.8413 29.0795 30.7842 28.4445 35.0001 28.4445C39.2159 28.4445 43.1589 29.0795 46.1026 30.232C48.5305 31.1831 50.0392 32.4361 50.0392 33.502V36.505ZM61.9161 42.9009C61.9177 42.9009 61.9193 42.9015 61.9204 42.9015C61.922 42.9015 61.9236 42.9009 61.9252 42.9009C62.7781 42.9036 63.4718 43.5963 63.4718 44.4476C63.4718 45.2358 62.7343 45.9947 61.9209 45.9953C61.1177 45.9953 60.37 45.277 60.37 44.4481C60.37 43.5963 61.0632 42.9036 61.9161 42.9009ZM52.7736 35.03V33.502C52.7736 31.1842 50.7586 29.1185 47.0997 27.6861C43.8457 26.4119 39.5487 25.7101 35.0001 25.7101C30.4515 25.7101 26.1545 26.4119 22.9004 27.6861C19.2416 29.119 17.2266 31.1842 17.2266 33.502V35.03L4.59609 29.4106L35.0001 14.5109L65.4041 29.4106L52.7736 35.03Z" fill="#4BBCAF"/>
<path d="M56.0547 54.563C56.0547 55.3182 55.4427 55.9302 54.6875 55.9302C53.9323 55.9302 53.3203 55.3182 53.3203 54.563C53.3203 53.8084 53.9323 53.1958 54.6875 53.1958C55.4427 53.1958 56.0547 53.8084 56.0547 54.563Z" fill="#4BBCAF"/>
<path d="M61.9338 56.8875C61.9338 57.6426 61.3218 58.2547 60.5667 58.2547C59.8115 58.2547 59.1995 57.6426 59.1995 56.8875C59.1995 56.1328 59.8115 55.5203 60.5667 55.5203C61.3218 55.5203 61.9338 56.1328 61.9338 56.8875Z" fill="#4BBCAF"/>
<path d="M68.6331 55.5203C68.6331 56.2754 68.021 56.8875 67.2659 56.8875C66.5107 56.8875 65.8987 56.2754 65.8987 55.5203C65.8987 54.7656 66.5107 54.1531 67.2659 54.1531C68.021 54.1531 68.6331 54.7656 68.6331 55.5203Z" fill="#4BBCAF"/>
</g>
<defs>
<clipPath id="clip0">
<rect width="70" height="70" fill="white"/>
</clipPath>
</defs>
</svg>
