<svg width="37" height="37" viewBox="0 0 37 37" fill="none" xmlns="http://www.w3.org/2000/svg">
<path d="M32.2058 8.94791C32.5524 8.94791 32.8866 8.81039 33.1331 8.56382L36.7657 4.93118C37.2511 4.44577 36.935 3.61269 36.2511 3.56977L34.318 3.44843L35.5794 2.18704C35.7911 1.97537 35.7911 1.63218 35.5794 1.42059C35.3677 1.20893 35.0246 1.20893 34.8129 1.42059L33.5515 2.68199L33.4302 0.748884C33.3872 0.0637345 32.5533 -0.250187 32.0687 0.234281L28.436 3.86692C28.17 4.13293 28.0311 4.50083 28.0546 4.87625L28.1795 6.86558C25.1477 4.2805 21.2402 2.79804 17.101 2.79804C7.64937 2.79804 0 10.4465 0 19.8989C0 24.1649 1.57972 28.2507 4.4483 31.4036C4.64985 31.625 4.99261 31.6411 5.21395 31.4397C5.43538 31.2383 5.45156 30.8955 5.25016 30.6741C2.56355 27.7212 1.08398 23.8945 1.08398 19.8989C1.08398 11.0672 8.2692 3.88195 17.101 3.88195C21.2398 3.88195 25.1343 5.46818 28.0474 8.18601L25.5743 10.659C23.3378 8.60602 20.3599 7.34969 17.101 7.34969C10.1813 7.34969 4.55179 12.9792 4.55179 19.8989C4.55179 21.8904 5.03221 23.874 5.94131 25.6354C5.94138 25.6355 5.94138 25.6355 5.94145 25.6356C8.04792 29.7172 12.2903 32.4481 17.101 32.4481C23.0289 32.4481 28.1845 28.2611 29.3895 22.4504C29.4503 22.1573 29.262 21.8704 28.9688 21.8096C28.6758 21.7489 28.3889 21.9372 28.3281 22.2303C27.2306 27.5227 22.509 31.3641 17.1011 31.3641C12.7934 31.3641 8.88634 28.9785 6.90475 25.1385C6.90475 25.1384 6.90468 25.1383 6.90468 25.1383C6.06278 23.5069 5.63584 21.7441 5.63584 19.8989C5.63584 13.5769 10.7791 8.43367 17.101 8.43367C20.0618 8.43367 22.7687 9.56838 24.8081 11.4252L22.3571 13.8763C20.9505 12.6472 19.1113 11.9014 17.101 11.9014C12.6913 11.9014 9.10364 15.489 9.10364 19.8988C9.10364 24.3086 12.6913 27.8962 17.101 27.8962C21.5108 27.8962 25.0985 24.3086 25.0985 19.8988C25.0985 17.8885 24.3527 16.0494 23.1236 14.6428L25.5748 12.1916C27.4172 14.2146 28.5493 16.8954 28.566 19.8321C28.5677 20.1303 28.8101 20.371 29.108 20.371H29.1111C29.4105 20.3693 29.6517 20.1252 29.65 19.8259C29.6315 16.5931 28.3784 13.6437 26.3413 11.425L28.8145 8.95181C31.5206 11.8452 33.118 15.7167 33.118 19.8987C33.1179 28.7307 25.9328 35.9159 17.101 35.9159C13.4422 35.9159 9.86467 34.6503 7.02731 32.3522C6.79455 32.1638 6.45352 32.1996 6.26498 32.4322C6.07659 32.6648 6.11243 33.0061 6.34498 33.1945C9.37478 35.6485 13.1947 36.9999 17.101 36.9999C26.5526 36.9999 34.202 29.3515 34.202 19.8989C34.202 16.198 33.0389 12.6757 30.8387 9.71298C30.6109 9.40622 30.3737 9.10884 30.1285 8.82C32.2532 8.95347 32.1386 8.94791 32.2058 8.94791ZM24.0145 19.8989C24.0145 23.711 20.9131 26.8124 17.101 26.8124C13.2889 26.8124 10.1876 23.711 10.1876 19.8989C10.1876 16.0869 13.2889 12.9855 17.101 12.9855C18.8124 12.9855 20.3802 13.6108 21.5888 14.6446L19.1224 17.111C18.5541 16.6979 17.8557 16.4533 17.101 16.4533C15.201 16.4533 13.6553 17.999 13.6553 19.8989C13.6553 21.7989 15.201 23.3446 17.101 23.3446C19.001 23.3446 20.5467 21.7989 20.5467 19.8989C20.5467 19.1441 20.3021 18.4458 19.889 17.8775L22.3554 15.4111C23.3891 16.6197 24.0145 18.1876 24.0145 19.8989ZM16.7177 20.2822C16.9294 20.4939 17.2725 20.4939 17.4842 20.2822L19.1089 18.6576C19.3329 19.0185 19.4627 19.4438 19.4627 19.899C19.4627 21.2013 18.4032 22.2607 17.1009 22.2607C15.7986 22.2607 14.7392 21.2012 14.7392 19.899C14.7392 18.5968 15.7986 17.5373 17.1009 17.5373C17.5561 17.5373 17.9814 17.6671 18.3424 17.8911L16.7176 19.5158C16.506 19.7274 16.506 20.0706 16.7177 20.2822ZM29.1365 4.80832C29.1324 4.74321 29.1565 4.6794 29.2026 4.63337L32.3879 1.44812L32.5295 3.70396L29.2716 6.96184L29.1365 4.80832ZM30.0382 7.72828L33.296 4.47041L35.5519 4.61198L32.3666 7.7973C32.3205 7.8434 32.2562 7.8679 32.1916 7.86342L30.0382 7.72828Z" fill="black"/>
</svg>
