<svg width="37" height="29" viewBox="0 0 37 29" fill="none" xmlns="http://www.w3.org/2000/svg">
<path d="M0.563278 15.8842C1.11284 16.2899 2.05415 16.9153 3.29853 17.486C1.62671 18.0576 0.420774 19.6432 0.420774 21.5062V26.8664C0.420774 27.7048 1.10287 28.3869 1.94127 28.3869H7.98728C8.28667 28.3869 8.52926 28.1444 8.52926 27.845C8.52926 27.5456 8.28667 27.303 7.98728 27.303H4.7162V21.8395C4.7162 21.5401 4.47361 21.2975 4.17422 21.2975C3.87483 21.2975 3.63224 21.5401 3.63224 21.8395V27.303H1.94127C1.70056 27.303 1.50473 27.1072 1.50473 26.8664V21.5062C1.50473 19.7613 2.92435 18.3418 4.66915 18.3418H6.50812C6.60611 19.7818 7.80467 20.9026 9.2519 20.9026C10.6933 20.9026 11.8965 19.7795 11.9948 18.3418H13.8347C15.5796 18.3418 16.9991 19.7614 16.9991 21.5062V26.8664C16.9991 27.1072 16.8033 27.303 16.5626 27.303H14.8716V21.8395C14.8716 21.5401 14.629 21.2975 14.3296 21.2975C14.0302 21.2975 13.7876 21.5401 13.7876 21.8395V27.303H10.5165C10.2171 27.303 9.97453 27.5456 9.97453 27.845C9.97453 28.1444 10.2171 28.3869 10.5165 28.3869H16.5626C17.4011 28.3869 18.0831 27.7048 18.0831 26.8664V21.5062C18.0831 19.6432 16.8772 18.0575 15.2053 17.486C16.4496 16.9154 17.391 16.2899 17.9406 15.8842C18.4584 15.502 18.6441 14.8217 18.3922 14.2298C17.6214 12.4182 17.108 10.7451 17.108 8.46891C17.108 4.13714 13.5838 0.612915 9.25197 0.612915C4.9202 0.612915 1.39597 4.13714 1.39597 8.46891C1.39597 10.7451 0.882611 12.4181 0.111703 14.2298C-0.14028 14.8217 0.0454371 15.502 0.563278 15.8842ZM10.9181 18.1065C10.9181 19.0267 10.1871 19.8063 9.27379 19.8181C8.3434 19.8304 7.58716 19.0777 7.58579 18.1551C7.58579 18.1542 7.58571 18.1533 7.58571 18.1524C7.58571 17.3248 7.58571 16.9561 7.58571 16.5516C8.62855 16.8906 9.79778 16.9157 10.9181 16.5516V18.1065ZM9.2519 15.7318C6.8875 15.7318 4.93306 13.8073 4.93306 11.4129V8.4674H7.09085C8.3056 8.4674 9.39404 7.91964 10.1184 7.43576V7.80365C10.1184 8.35994 10.6144 8.78355 11.1612 8.70167C12.1546 8.55361 12.9733 7.98728 13.5708 7.48642V11.4129C13.5707 13.803 11.6207 15.7318 9.2519 15.7318ZM1.10901 14.6542C1.93188 12.7205 2.47985 10.9286 2.47985 8.46899C2.47985 4.73483 5.51775 1.69694 9.2519 1.69694C12.986 1.69694 16.024 4.73483 16.024 8.46899C16.024 10.9287 16.572 12.7205 17.3948 14.6542C17.4493 14.7822 17.4089 14.9294 17.2969 15.0121C16.5177 15.5872 14.8919 16.638 12.7082 17.2578H12.0021V16.0608C13.5887 15.1185 14.6548 13.3882 14.6548 11.4129V6.8247C14.6548 6.14571 13.8459 5.78533 13.3417 6.24298L13.3285 6.2549C12.8269 6.71045 12.0866 7.3825 11.2024 7.59084V6.85057C11.2024 6.19485 10.446 5.82775 9.93038 6.23387C9.38515 6.66319 8.29122 7.38344 7.09085 7.38344H4.89382C4.31774 7.38344 3.84911 7.85207 3.84911 8.42816V11.4129C3.84911 13.3882 4.91521 15.1185 6.50176 16.0608V17.2578H5.79567C3.61201 16.6381 1.98615 15.5872 1.207 15.0121C1.09492 14.9293 1.05453 14.7822 1.10901 14.6542Z" fill="black"/>
<path d="M36.4581 23.0177C36.7574 23.0177 37 22.7751 37 22.4757V21.5063C37 19.1637 35.0942 17.2579 32.7517 17.2579H30.9191V16.0608C32.3548 15.2081 33.3643 13.7102 33.5432 11.9692H33.8772C34.9222 11.9692 35.7724 11.119 35.7724 10.074C35.7724 9.70178 35.6641 9.35455 35.478 9.06138V7.92207C35.478 3.89186 32.1992 0.613037 28.169 0.613037C24.1388 0.613037 20.8599 3.89186 20.8599 7.92207V9.06152C20.6738 9.3547 20.5655 9.70185 20.5655 10.0741C20.5655 11.1191 21.4158 11.9693 22.4608 11.9693H22.7948C22.9737 13.7103 23.9832 15.2081 25.4189 16.0608V17.2579H23.5863C21.2437 17.2579 19.3379 19.1637 19.3379 21.5063V26.8665C19.3379 27.7049 20.02 28.387 20.8584 28.387H35.4797C36.3182 28.387 37.0002 27.7049 37.0002 26.8665V25.0049C37.0002 24.7055 36.7576 24.4629 36.4582 24.4629C36.1588 24.4629 35.9162 24.7055 35.9162 25.0049V26.8665C35.9162 27.1072 35.7204 27.303 35.4797 27.303H33.7887V21.8395C33.7887 21.5402 33.5461 21.2976 33.2467 21.2976C32.9474 21.2976 32.7048 21.5402 32.7048 21.8395V27.303H23.6332V21.8395C23.6332 21.5402 23.3906 21.2976 23.0913 21.2976C22.7919 21.2976 22.5493 21.5402 22.5493 21.8395V27.303H20.8582C20.6175 27.303 20.4217 27.1072 20.4217 26.8665V21.5063C20.4217 19.7614 21.8413 18.3418 23.5861 18.3418H25.4251C25.5229 19.7802 26.7198 20.9026 28.1689 20.9026C29.6129 20.9026 30.8136 19.777 30.9118 18.3418H32.7517C34.4965 18.3418 35.9161 19.7615 35.9161 21.5063V22.4757C35.9161 22.7751 36.1587 23.0177 36.4581 23.0177ZM34.6884 10.0741C34.6884 10.5213 34.3245 10.8853 33.8772 10.8853H33.5717V9.26292H33.8772C33.9994 9.26292 34.1232 9.2927 34.2282 9.34393C34.2282 9.34393 34.6884 9.54685 34.6884 10.0741ZM22.7661 10.8852H22.4606C22.0133 10.8852 21.6493 10.5213 21.6493 10.074C21.6493 9.62655 22.019 9.26278 22.4606 9.26278H22.7661V10.8852ZM22.7661 8.0593V8.1789H22.4606C22.3006 8.1789 22.115 8.20188 21.9438 8.25058V7.922C21.9438 4.48948 24.7364 1.69692 28.1689 1.69692C31.6014 1.69692 34.394 4.48948 34.394 7.922V8.25058C34.092 8.16502 33.8772 8.1789 33.5718 8.1789C33.5718 6.89557 32.4735 6.37202 31.6145 6.62443C30.4673 6.96205 29.3098 7.19358 28.1245 7.19315C26.9637 7.19264 25.9105 6.9739 24.7235 6.62443C23.7621 6.34188 22.7661 7.0432 22.7661 8.0593ZM29.835 18.1065C29.835 19.027 29.1039 19.8063 28.1908 19.8181C27.2593 19.8304 26.504 19.0765 26.5027 18.155C26.5027 18.1541 26.5027 18.1533 26.5027 18.1525C26.5027 17.3249 26.5027 16.9563 26.5027 16.5517C27.5985 16.9079 28.7706 16.8978 29.835 16.5517V18.1065ZM28.1689 15.7318C25.7989 15.7318 23.8578 13.8061 23.8504 11.4266C23.8504 11.4219 23.8502 11.4136 23.85 11.4068C23.85 10.5625 23.85 8.7294 23.85 8.05937C23.85 7.7714 24.143 7.58706 24.4128 7.66344C24.4143 7.66387 24.4158 7.66402 24.4173 7.66445C26.9671 8.41498 28.9367 8.54245 31.9203 7.66445C32.1877 7.58554 32.4878 7.76728 32.4878 8.05937V11.4055C32.4876 11.4105 32.4874 11.4162 32.4874 11.4193C32.4874 11.4204 32.4875 11.4214 32.4875 11.4225C32.4823 13.8363 30.5032 15.7318 28.1689 15.7318Z" fill="black"/>
</svg>
